<svg xmlns="http://www.w3.org/2000/svg" xmlns:xlink="http://www.w3.org/1999/xlink" xmlns:inkscape="http://www.inkscape.org/namespaces/inkscape" version="1.1" width="496.13877" height="395.9697" viewBox="0 0 496.13877 395.9697">
<defs>
<clipPath id="clip_0">
<path d="M42.539 23.836H488.937V356.477H42.539Z"/>
</clipPath>
<clipPath id="clip_1">
<path d="M0 0H497V396H0Z"/>
</clipPath>
<clipPath id="clip_2">
<path d="M0 0H497V396H0Z"/>
</clipPath>
<clipPath id="clip_3">
<path d="M0 0H497V396H0Z"/>
</clipPath>
<clipPath id="clip_4">
<path d="M0 0H497V396H0Z"/>
</clipPath>
<clipPath id="clip_5">
<path d="M0 0H497V396H0Z"/>
</clipPath>
<clipPath id="clip_6">
<path d="M0 0H497V396H0Z"/>
</clipPath>
<clipPath id="clip_7">
<path d="M0 0H497V396H0Z"/>
</clipPath>
<clipPath id="clip_8">
<path d="M42.539 23.836H488.937V356.477H42.539Z"/>
</clipPath>
<clipPath id="clip_9">
<path d="M0 0H497V396H0Z"/>
</clipPath>
<clipPath id="clip_10">
<path d="M42.539 23.836H488.937V356.477H42.539Z"/>
</clipPath>
<clipPath id="clip_11">
<path d="M0 0H497V396H0Z"/>
</clipPath>
<clipPath id="clip_12">
<path d="M42.539 23.836H488.937V356.477H42.539Z"/>
</clipPath>
<clipPath id="clip_13">
<path d="M0 0H497V396H0Z"/>
</clipPath>
<clipPath id="clip_14">
<path d="M42.539 23.836H488.937V356.477H42.539Z"/>
</clipPath>
<clipPath id="clip_15">
<path d="M0 0H497V396H0Z"/>
</clipPath>
<clipPath id="clip_16">
<path d="M42.539 23.836H488.937V356.477H42.539Z"/>
</clipPath>
<clipPath id="clip_17">
<path d="M0 0H497V396H0Z"/>
</clipPath>
<clipPath id="clip_18">
<path d="M42.539 23.836H488.937V356.477H42.539Z"/>
</clipPath>
<clipPath id="clip_19">
<path d="M0 0H497V396H0Z"/>
</clipPath>
<clipPath id="clip_20">
<path d="M42.539 23.836H488.937V356.477H42.539Z"/>
</clipPath>
<clipPath id="clip_21">
<path d="M0 0H497V396H0Z"/>
</clipPath>
<clipPath id="clip_22">
<path d="M42.539 23.836H488.937V356.477H42.539Z"/>
</clipPath>
<clipPath id="clip_23">
<path d="M0 0H497V396H0Z"/>
</clipPath>
<clipPath id="clip_24">
<path d="M42.539 23.836H488.937V356.477H42.539Z"/>
</clipPath>
<clipPath id="clip_25">
<path d="M0 0H497V396H0Z"/>
</clipPath>
<clipPath id="clip_26">
<path d="M42.539 23.836H488.937V356.477H42.539Z"/>
</clipPath>
<clipPath id="clip_27">
<path d="M0 0H497V396H0Z"/>
</clipPath>
<clipPath id="clip_28">
<path d="M42.539 23.836H488.937V356.477H42.539Z"/>
</clipPath>
<clipPath id="clip_29">
<path d="M0 0H497V396H0Z"/>
</clipPath>
<clipPath id="clip_30">
<path d="M42.539 23.836H488.937V356.477H42.539Z"/>
</clipPath>
<clipPath id="clip_31">
<path d="M0 0H497V396H0Z"/>
</clipPath>
<clipPath id="clip_32">
<path d="M42.539 23.836H488.937V356.477H42.539Z"/>
</clipPath>
<clipPath id="clip_33">
<path d="M0 0H497V396H0Z"/>
</clipPath>
<clipPath id="clip_34">
<path d="M42.539 23.836H488.937V356.477H42.539Z"/>
</clipPath>
<clipPath id="clip_35">
<path d="M0 0H497V396H0Z"/>
</clipPath>
</defs>
<g>
<path d="M0 0H496.141V395.969H0Z" fill="#ffffff"/>
<path d="M42.539 23.836H488.937V356.477H42.539Z" fill="#ffffff"/>
<g clip-path="url(#clip_0)">
<g>
<g clip-path="url(#clip_1)">
<path d="M468.648 334.105C470.543 334.105 472.363 333.355 473.703 332.012 475.043 330.672 475.797 328.855 475.797 326.957 475.797 325.062 475.043 323.242 473.703 321.902 472.363 320.562 470.543 319.809 468.648 319.809 466.75 319.809 464.934 320.562 463.594 321.902 462.25 323.242 461.5 325.062 461.5 326.957 461.5 328.855 462.25 330.672 463.594 332.012 464.934 333.355 466.75 334.105 468.648 334.105ZM468.648 334.105" fill="#440154" fill-opacity=".8"/>
<path stroke-width="1" stroke-linecap="butt" stroke-linejoin="round" fill="none" stroke="#ffffff" stroke-opacity=".8" d="M468.648 334.105C470.543 334.105 472.363 333.355 473.703 332.012 475.043 330.672 475.797 328.855 475.797 326.957 475.797 325.062 475.043 323.242 473.703 321.902 472.363 320.562 470.543 319.809 468.648 319.809 466.75 319.809 464.934 320.562 463.594 321.902 462.25 323.242 461.5 325.062 461.5 326.957 461.5 328.855 462.25 330.672 463.594 332.012 464.934 333.355 466.75 334.105 468.648 334.105ZM468.648 334.105"/>
</g>
</g>
<g>
<g clip-path="url(#clip_2)">
<path d="M184.574 253.242C187.305 253.242 189.918 252.16 191.848 250.23 193.777 248.301 194.859 245.688 194.859 242.957 194.859 240.23 193.777 237.613 191.848 235.684 189.918 233.754 187.305 232.672 184.574 232.672 181.848 232.672 179.23 233.754 177.301 235.684 175.371 237.613 174.289 240.23 174.289 242.957 174.289 245.688 175.371 248.301 177.301 250.23 179.23 252.16 181.848 253.242 184.574 253.242ZM184.574 253.242" fill="#414487" fill-opacity=".8"/>
<path stroke-width="1" stroke-linecap="butt" stroke-linejoin="round" fill="none" stroke="#ffffff" stroke-opacity=".8" d="M184.574 253.242C187.305 253.242 189.918 252.16 191.848 250.23 193.777 248.301 194.859 245.688 194.859 242.957 194.859 240.23 193.777 237.613 191.848 235.684 189.918 233.754 187.305 232.672 184.574 232.672 181.848 232.672 179.23 233.754 177.301 235.684 175.371 237.613 174.289 240.23 174.289 242.957 174.289 245.688 175.371 248.301 177.301 250.23 179.23 252.16 181.848 253.242 184.574 253.242ZM184.574 253.242"/>
</g>
</g>
<g>
<g clip-path="url(#clip_3)">
<path d="M113.559 304.027C115.434 304.027 117.23 303.285 118.559 301.957 119.883 300.633 120.629 298.832 120.629 296.957 120.629 295.082 119.883 293.285 118.559 291.957 117.23 290.633 115.434 289.887 113.559 289.887 111.684 289.887 109.883 290.633 108.559 291.957 107.23 293.285 106.484 295.082 106.484 296.957 106.484 298.832 107.23 300.633 108.559 301.957 109.883 303.285 111.684 304.027 113.559 304.027ZM113.559 304.027" fill="#2a788e" fill-opacity=".8"/>
<path stroke-width="1" stroke-linecap="butt" stroke-linejoin="round" fill="none" stroke="#ffffff" stroke-opacity=".8" d="M113.559 304.027C115.434 304.027 117.23 303.285 118.559 301.957 119.883 300.633 120.629 298.832 120.629 296.957 120.629 295.082 119.883 293.285 118.559 291.957 117.23 290.633 115.434 289.887 113.559 289.887 111.684 289.887 109.883 290.633 108.559 291.957 107.23 293.285 106.484 295.082 106.484 296.957 106.484 298.832 107.23 300.633 108.559 301.957 109.883 303.285 111.684 304.027 113.559 304.027ZM113.559 304.027"/>
</g>
</g>
<g>
<g clip-path="url(#clip_4)">
<path d="M164.285 48.742C166.879 48.742 169.367 47.711 171.203 45.879 173.039 44.043 174.07 41.555 174.07 38.957 174.07 36.363 173.039 33.875 171.203 32.039 169.367 30.203 166.879 29.172 164.285 29.172 161.688 29.172 159.199 30.203 157.363 32.039 155.531 33.875 154.5 36.363 154.5 38.957 154.5 41.555 155.531 44.043 157.363 45.879 159.199 47.711 161.688 48.742 164.285 48.742ZM164.285 48.742" fill="#22a884" fill-opacity=".8"/>
<path stroke-width="1" stroke-linecap="butt" stroke-linejoin="round" fill="none" stroke="#ffffff" stroke-opacity=".8" d="M164.285 48.742C166.879 48.742 169.367 47.711 171.203 45.879 173.039 44.043 174.07 41.555 174.07 38.957 174.07 36.363 173.039 33.875 171.203 32.039 169.367 30.203 166.879 29.172 164.285 29.172 161.688 29.172 159.199 30.203 157.363 32.039 155.531 33.875 154.5 36.363 154.5 38.957 154.5 41.555 155.531 44.043 157.363 45.879 159.199 47.711 161.688 48.742 164.285 48.742ZM164.285 48.742"/>
</g>
</g>
<g>
<g clip-path="url(#clip_5)">
<path d="M143.992 321.402C147.293 321.402 150.461 320.094 152.793 317.758 155.129 315.426 156.441 312.258 156.441 308.957 156.441 305.656 155.129 302.492 152.793 300.156 150.461 297.824 147.293 296.512 143.992 296.512 140.691 296.512 137.527 297.824 135.191 300.156 132.859 302.492 131.547 305.656 131.547 308.957 131.547 312.258 132.859 315.426 135.191 317.758 137.527 320.094 140.691 321.402 143.992 321.402ZM143.992 321.402" fill="#7ad151" fill-opacity=".8"/>
<path stroke-width="1" stroke-linecap="butt" stroke-linejoin="round" fill="none" stroke="#ffffff" stroke-opacity=".8" d="M143.992 321.402C147.293 321.402 150.461 320.094 152.793 317.758 155.129 315.426 156.441 312.258 156.441 308.957 156.441 305.656 155.129 302.492 152.793 300.156 150.461 297.824 147.293 296.512 143.992 296.512 140.691 296.512 137.527 297.824 135.191 300.156 132.859 302.492 131.547 305.656 131.547 308.957 131.547 312.258 132.859 315.426 135.191 317.758 137.527 320.094 140.691 321.402 143.992 321.402ZM143.992 321.402"/>
</g>
</g>
<g>
<g clip-path="url(#clip_6)">
<path d="M62.828 354.586C66.34 354.586 69.703 353.191 72.184 350.711 74.664 348.23 76.059 344.867 76.059 341.359 76.059 337.848 74.664 334.484 72.184 332.004 69.703 329.523 66.34 328.129 62.828 328.129 59.32 328.129 55.957 329.523 53.477 332.004 50.996 334.484 49.602 337.848 49.602 341.359 49.602 344.867 50.996 348.23 53.477 350.711 55.957 353.191 59.32 354.586 62.828 354.586ZM62.828 354.586" fill="#fde725" fill-opacity=".8"/>
<path stroke-width="1" stroke-linecap="butt" stroke-linejoin="round" fill="none" stroke="#ffffff" stroke-opacity=".8" d="M62.828 354.586C66.34 354.586 69.703 353.191 72.184 350.711 74.664 348.23 76.059 344.867 76.059 341.359 76.059 337.848 74.664 334.484 72.184 332.004 69.703 329.523 66.34 328.129 62.828 328.129 59.32 328.129 55.957 329.523 53.477 332.004 50.996 334.484 49.602 337.848 49.602 341.359 49.602 344.867 50.996 348.23 53.477 350.711 55.957 353.191 59.32 354.586 62.828 354.586ZM62.828 354.586"/>
</g>
</g>
<g>
<g clip-path="url(#clip_7)">
<path stroke-width=".8" stroke-linecap="butt" stroke-dasharray="2.96,1.28" stroke-linejoin="round" fill="none" stroke="#b0b0b0" stroke-opacity=".6" d="M62.828 356.477V23.836"/>
</g>
</g>
</g>
<path stroke-width=".8" stroke-linecap="butt" stroke-linejoin="round" fill="none" stroke="#000000" d="M62.828 356.477V359.977"/>
<path d="M62.828 364.438C62.32 364.438 61.938 364.688 61.68 365.188 61.426 365.684 61.297 366.438 61.297 367.438 61.297 368.438 61.426 369.188 61.68 369.688 61.938 370.188 62.32 370.438 62.828 370.438 63.34 370.438 63.723 370.188 63.977 369.688 64.234 369.188 64.359 368.438 64.359 367.438 64.359 366.438 64.234 365.684 63.977 365.188 63.723 364.688 63.34 364.438 62.828 364.438ZM62.828 363.656C63.645 363.656 64.27 363.977 64.699 364.625 65.133 365.27 65.348 366.207 65.348 367.438 65.348 368.664 65.133 369.602 64.699 370.25 64.27 370.895 63.645 371.219 62.828 371.219 62.012 371.219 61.387 370.895 60.953 370.25 60.523 369.602 60.309 368.664 60.309 367.438 60.309 366.207 60.523 365.27 60.953 364.625 61.387 363.977 62.012 363.656 62.828 363.656ZM62.828 363.656"/>
<g clip-path="url(#clip_8)">
<g>
<g clip-path="url(#clip_9)">
<path stroke-width=".8" stroke-linecap="butt" stroke-dasharray="2.96,1.28" stroke-linejoin="round" fill="none" stroke="#b0b0b0" stroke-opacity=".6" d="M113.559 356.477V23.836"/>
</g>
</g>
</g>
<path stroke-width=".8" stroke-linecap="butt" stroke-linejoin="round" fill="none" stroke="#000000" d="M113.559 356.477V359.977"/>
<path d="M111.457 363.785H115.328V364.617H112.359V366.402C112.5 366.355 112.645 366.316 112.785 366.293 112.93 366.27 113.074 366.258 113.219 366.258 114.031 366.258 114.676 366.48 115.152 366.926 115.625 367.371 115.863 367.977 115.863 368.738 115.863 369.523 115.621 370.133 115.133 370.566 114.645 371 113.953 371.219 113.066 371.219 112.762 371.219 112.449 371.191 112.129 371.141 111.812 371.09 111.484 371.012 111.148 370.906V369.914C111.441 370.074 111.742 370.191 112.055 370.27 112.367 370.348 112.699 370.387 113.047 370.387 113.609 370.387 114.055 370.238 114.383 369.945 114.711 369.648 114.879 369.246 114.879 368.738 114.879 368.23 114.711 367.828 114.383 367.531 114.055 367.234 113.609 367.086 113.047 367.086 112.781 367.086 112.52 367.117 112.258 367.176 111.996 367.234 111.727 367.324 111.457 367.449ZM111.457 363.785"/>
<g clip-path="url(#clip_10)">
<g>
<g clip-path="url(#clip_11)">
<path stroke-width=".8" stroke-linecap="butt" stroke-dasharray="2.96,1.28" stroke-linejoin="round" fill="none" stroke="#b0b0b0" stroke-opacity=".6" d="M164.285 356.477V23.836"/>
</g>
</g>
</g>
<path stroke-width=".8" stroke-linecap="butt" stroke-linejoin="round" fill="none" stroke="#000000" d="M164.285 356.477V359.977"/>
<path d="M159.164 370.246H160.773V364.684L159.02 365.035V364.137L160.766 363.785H161.75V370.246H163.359V371.078H159.164ZM159.164 370.246"/>
<path d="M167.461 364.438C166.953 364.438 166.574 364.688 166.316 365.188 166.062 365.684 165.934 366.438 165.934 367.438 165.934 368.438 166.062 369.188 166.316 369.688 166.574 370.188 166.953 370.438 167.461 370.438 167.973 370.438 168.355 370.188 168.613 369.688 168.867 369.188 168.996 368.438 168.996 367.438 168.996 366.438 168.867 365.684 168.613 365.188 168.355 364.688 167.973 364.438 167.461 364.438ZM167.461 363.656C168.281 363.656 168.906 363.977 169.336 364.625 169.766 365.27 169.984 366.207 169.984 367.438 169.984 368.664 169.766 369.602 169.336 370.25 168.906 370.895 168.281 371.219 167.461 371.219 166.645 371.219 166.023 370.895 165.59 370.25 165.16 369.602 164.945 368.664 164.945 367.438 164.945 366.207 165.16 365.27 165.59 364.625 166.023 363.977 166.645 363.656 167.461 363.656ZM167.461 363.656"/>
<g clip-path="url(#clip_12)">
<g>
<g clip-path="url(#clip_13)">
<path stroke-width=".8" stroke-linecap="butt" stroke-dasharray="2.96,1.28" stroke-linejoin="round" fill="none" stroke="#b0b0b0" stroke-opacity=".6" d="M215.012 356.477V23.836"/>
</g>
</g>
</g>
<path stroke-width=".8" stroke-linecap="butt" stroke-linejoin="round" fill="none" stroke="#000000" d="M215.012 356.477V359.977"/>
<path d="M209.891 370.246H211.5V364.684L209.746 365.035V364.137L211.492 363.785H212.477V370.246H214.09V371.078H209.891ZM209.891 370.246"/>
<path d="M216.09 363.785H219.961V364.617H216.992V366.402C217.137 366.355 217.281 366.316 217.422 366.293 217.566 366.27 217.711 366.258 217.852 366.258 218.668 366.258 219.312 366.48 219.785 366.926 220.262 367.371 220.5 367.977 220.5 368.738 220.5 369.523 220.258 370.133 219.766 370.566 219.277 371 218.59 371.219 217.703 371.219 217.395 371.219 217.082 371.191 216.766 371.141 216.449 371.09 216.121 371.012 215.781 370.906V369.914C216.074 370.074 216.379 370.191 216.691 370.27 217.004 370.348 217.332 370.387 217.68 370.387 218.246 370.387 218.691 370.238 219.02 369.945 219.348 369.648 219.512 369.246 219.512 368.738 219.512 368.23 219.348 367.828 219.02 367.531 218.691 367.234 218.246 367.086 217.68 367.086 217.418 367.086 217.156 367.117 216.891 367.176 216.633 367.234 216.363 367.324 216.09 367.449ZM216.09 363.785"/>
<g clip-path="url(#clip_14)">
<g>
<g clip-path="url(#clip_15)">
<path stroke-width=".8" stroke-linecap="butt" stroke-dasharray="2.96,1.28" stroke-linejoin="round" fill="none" stroke="#b0b0b0" stroke-opacity=".6" d="M265.738 356.477V23.836"/>
</g>
</g>
</g>
<path stroke-width=".8" stroke-linecap="butt" stroke-linejoin="round" fill="none" stroke="#000000" d="M265.738 356.477V359.977"/>
<path d="M261.297 370.246H264.738V371.078H260.109V370.246C260.484 369.859 260.992 369.34 261.641 368.688 262.285 368.035 262.691 367.613 262.859 367.422 263.172 367.07 263.395 366.77 263.52 366.523 263.645 366.277 263.707 366.035 263.707 365.797 263.707 365.41 263.57 365.094 263.301 364.852 263.027 364.605 262.672 364.484 262.238 364.484 261.93 364.484 261.602 364.539 261.258 364.645 260.914 364.754 260.547 364.914 260.156 365.133V364.137C260.555 363.977 260.926 363.859 261.27 363.777 261.617 363.695 261.934 363.656 262.219 363.656 262.973 363.656 263.574 363.844 264.023 364.223 264.473 364.598 264.699 365.102 264.699 365.734 264.699 366.035 264.641 366.32 264.531 366.586 264.418 366.855 264.215 367.172 263.918 367.535 263.836 367.629 263.578 367.902 263.141 368.355 262.703 368.805 262.09 369.438 261.297 370.246ZM261.297 370.246"/>
<path d="M268.918 364.438C268.41 364.438 268.027 364.688 267.77 365.188 267.516 365.684 267.387 366.438 267.387 367.438 267.387 368.438 267.516 369.188 267.77 369.688 268.027 370.188 268.41 370.438 268.918 370.438 269.43 370.438 269.812 370.188 270.066 369.688 270.324 369.188 270.449 368.438 270.449 367.438 270.449 366.438 270.324 365.684 270.066 365.188 269.812 364.688 269.43 364.438 268.918 364.438ZM268.918 363.656C269.734 363.656 270.359 363.977 270.789 364.625 271.223 365.27 271.438 366.207 271.438 367.438 271.438 368.664 271.223 369.602 270.789 370.25 270.359 370.895 269.734 371.219 268.918 371.219 268.102 371.219 267.477 370.895 267.043 370.25 266.613 369.602 266.398 368.664 266.398 367.438 266.398 366.207 266.613 365.27 267.043 364.625 267.477 363.977 268.102 363.656 268.918 363.656ZM268.918 363.656"/>
<g clip-path="url(#clip_16)">
<g>
<g clip-path="url(#clip_17)">
<path stroke-width=".8" stroke-linecap="butt" stroke-dasharray="2.96,1.28" stroke-linejoin="round" fill="none" stroke="#b0b0b0" stroke-opacity=".6" d="M316.465 356.477V23.836"/>
</g>
</g>
</g>
<path stroke-width=".8" stroke-linecap="butt" stroke-linejoin="round" fill="none" stroke="#000000" d="M316.465 356.477V359.977"/>
<path d="M312.023 370.246H315.465V371.078H310.836V370.246C311.211 369.859 311.719 369.34 312.367 368.688 313.012 368.035 313.418 367.613 313.586 367.422 313.902 367.07 314.121 366.77 314.246 366.523 314.371 366.277 314.434 366.035 314.434 365.797 314.434 365.41 314.301 365.094 314.027 364.852 313.754 364.605 313.402 364.484 312.965 364.484 312.656 364.484 312.328 364.539 311.984 364.645 311.641 364.754 311.277 364.914 310.887 365.133V364.137C311.281 363.977 311.652 363.859 311.996 363.777 312.344 363.695 312.66 363.656 312.945 363.656 313.699 363.656 314.305 363.844 314.754 364.223 315.199 364.598 315.426 365.102 315.426 365.734 315.426 366.035 315.371 366.32 315.258 366.586 315.145 366.855 314.941 367.172 314.645 367.535 314.562 367.629 314.305 367.902 313.867 368.355 313.434 368.805 312.816 369.438 312.023 370.246ZM312.023 370.246"/>
<path d="M317.547 363.785H321.418V364.617H318.449V366.402C318.59 366.355 318.734 366.316 318.875 366.293 319.02 366.27 319.164 366.258 319.309 366.258 320.121 366.258 320.766 366.48 321.242 366.926 321.719 367.371 321.953 367.977 321.953 368.738 321.953 369.523 321.711 370.133 321.223 370.566 320.734 371 320.047 371.219 319.156 371.219 318.852 371.219 318.539 371.191 318.219 371.141 317.902 371.09 317.578 371.012 317.238 370.906V369.914C317.531 370.074 317.832 370.191 318.145 370.27 318.457 370.348 318.789 370.387 319.137 370.387 319.699 370.387 320.145 370.238 320.473 369.945 320.805 369.648 320.969 369.246 320.969 368.738 320.969 368.23 320.805 367.828 320.473 367.531 320.145 367.234 319.699 367.086 319.137 367.086 318.871 367.086 318.609 367.117 318.348 367.176 318.086 367.234 317.82 367.324 317.547 367.449ZM317.547 363.785"/>
<g clip-path="url(#clip_18)">
<g>
<g clip-path="url(#clip_19)">
<path stroke-width=".8" stroke-linecap="butt" stroke-dasharray="2.96,1.28" stroke-linejoin="round" fill="none" stroke="#b0b0b0" stroke-opacity=".6" d="M367.191 356.477V23.836"/>
</g>
</g>
</g>
<path stroke-width=".8" stroke-linecap="butt" stroke-linejoin="round" fill="none" stroke="#000000" d="M367.191 356.477V359.977"/>
<path d="M364.887 367.145C365.359 367.246 365.73 367.457 365.992 367.777 366.258 368.094 366.391 368.488 366.391 368.957 366.391 369.676 366.145 370.234 365.648 370.629 365.156 371.023 364.453 371.219 363.539 371.219 363.234 371.219 362.922 371.188 362.598 371.129 362.273 371.066 361.938 370.977 361.594 370.855V369.906C361.867 370.062 362.164 370.184 362.488 370.266 362.816 370.348 363.156 370.387 363.512 370.387 364.129 370.387 364.602 370.266 364.926 370.023 365.25 369.777 365.41 369.422 365.41 368.957 365.41 368.527 365.262 368.191 364.957 367.949 364.656 367.707 364.238 367.586 363.703 367.586H362.852V366.773H363.742C364.227 366.773 364.598 366.68 364.855 366.484 365.113 366.289 365.238 366.012 365.238 365.648 365.238 365.273 365.105 364.984 364.84 364.785 364.578 364.586 364.199 364.484 363.703 364.484 363.434 364.484 363.141 364.516 362.832 364.574 362.523 364.633 362.184 364.723 361.812 364.844V363.969C362.188 363.863 362.539 363.785 362.863 363.734 363.191 363.68 363.5 363.656 363.789 363.656 364.539 363.656 365.133 363.824 365.566 364.164 366.004 364.504 366.223 364.965 366.223 365.543 366.223 365.949 366.105 366.289 365.875 366.566 365.645 366.844 365.316 367.039 364.887 367.145ZM364.887 367.145"/>
<path d="M370.371 364.438C369.863 364.438 369.48 364.688 369.227 365.188 368.973 365.684 368.844 366.438 368.844 367.438 368.844 368.438 368.973 369.188 369.227 369.688 369.48 370.188 369.863 370.438 370.371 370.438 370.883 370.438 371.266 370.188 371.52 369.688 371.777 369.188 371.906 368.438 371.906 367.438 371.906 366.438 371.777 365.684 371.52 365.188 371.266 364.688 370.883 364.438 370.371 364.438ZM370.371 363.656C371.188 363.656 371.812 363.977 372.246 364.625 372.676 365.27 372.891 366.207 372.891 367.438 372.891 368.664 372.676 369.602 372.246 370.25 371.812 370.895 371.188 371.219 370.371 371.219 369.555 371.219 368.93 370.895 368.5 370.25 368.066 369.602 367.852 368.664 367.852 367.438 367.852 366.207 368.066 365.27 368.5 364.625 368.93 363.977 369.555 363.656 370.371 363.656ZM370.371 363.656"/>
<g clip-path="url(#clip_20)">
<g>
<g clip-path="url(#clip_21)">
<path stroke-width=".8" stroke-linecap="butt" stroke-dasharray="2.96,1.28" stroke-linejoin="round" fill="none" stroke="#b0b0b0" stroke-opacity=".6" d="M417.922 356.477V23.836"/>
</g>
</g>
</g>
<path stroke-width=".8" stroke-linecap="butt" stroke-linejoin="round" fill="none" stroke="#000000" d="M417.922 356.477V359.977"/>
<path d="M415.617 367.145C416.086 367.246 416.457 367.457 416.719 367.777 416.984 368.094 417.117 368.488 417.117 368.957 417.117 369.676 416.871 370.234 416.375 370.629 415.883 371.023 415.18 371.219 414.266 371.219 413.961 371.219 413.648 371.188 413.324 371.129 413 371.066 412.664 370.977 412.32 370.855V369.906C412.594 370.062 412.891 370.184 413.219 370.266 413.543 370.348 413.883 370.387 414.238 370.387 414.855 370.387 415.328 370.266 415.652 370.023 415.977 369.777 416.137 369.422 416.137 368.957 416.137 368.527 415.988 368.191 415.688 367.949 415.387 367.707 414.965 367.586 414.43 367.586H413.578V366.773H414.469C414.953 366.773 415.324 366.68 415.582 366.484 415.84 366.289 415.969 366.012 415.969 365.648 415.969 365.273 415.836 364.984 415.57 364.785 415.305 364.586 414.926 364.484 414.43 364.484 414.16 364.484 413.867 364.516 413.559 364.574 413.25 364.633 412.91 364.723 412.539 364.844V363.969C412.914 363.863 413.266 363.785 413.594 363.734 413.918 363.68 414.227 363.656 414.516 363.656 415.266 363.656 415.859 363.824 416.293 364.164 416.73 364.504 416.949 364.965 416.949 365.543 416.949 365.949 416.832 366.289 416.602 366.566 416.371 366.844 416.043 367.039 415.617 367.145ZM415.617 367.145"/>
<path d="M419 363.785H422.871V364.617H419.902V366.402C420.047 366.355 420.188 366.316 420.332 366.293 420.477 366.27 420.617 366.258 420.762 366.258 421.574 366.258 422.219 366.48 422.695 366.926 423.172 367.371 423.41 367.977 423.41 368.738 423.41 369.523 423.164 370.133 422.676 370.566 422.188 371 421.5 371.219 420.609 371.219 420.305 371.219 419.992 371.191 419.676 371.141 419.359 371.09 419.031 371.012 418.691 370.906V369.914C418.984 370.074 419.289 370.191 419.602 370.27 419.914 370.348 420.242 370.387 420.59 370.387 421.152 370.387 421.602 370.238 421.93 369.945 422.258 369.648 422.422 369.246 422.422 368.738 422.422 368.23 422.258 367.828 421.93 367.531 421.602 367.234 421.152 367.086 420.59 367.086 420.328 367.086 420.062 367.117 419.801 367.176 419.539 367.234 419.273 367.324 419 367.449ZM419 363.785"/>
<g clip-path="url(#clip_22)">
<g>
<g clip-path="url(#clip_23)">
<path stroke-width=".8" stroke-linecap="butt" stroke-dasharray="2.96,1.28" stroke-linejoin="round" fill="none" stroke="#b0b0b0" stroke-opacity=".6" d="M468.648 356.477V23.836"/>
</g>
</g>
</g>
<path stroke-width=".8" stroke-linecap="butt" stroke-linejoin="round" fill="none" stroke="#000000" d="M468.648 356.477V359.977"/>
<path d="M466.066 364.645 463.574 368.539H466.066ZM465.805 363.785H467.047V368.539H468.086V369.359H467.047V371.078H466.066V369.359H462.773V368.406ZM465.805 363.785"/>
<path d="M471.824 364.438C471.32 364.438 470.938 364.688 470.68 365.188 470.426 365.684 470.297 366.438 470.297 367.438 470.297 368.438 470.426 369.188 470.68 369.688 470.938 370.188 471.32 370.438 471.824 370.438 472.336 370.438 472.719 370.188 472.977 369.688 473.23 369.188 473.359 368.438 473.359 367.438 473.359 366.438 473.23 365.684 472.977 365.188 472.719 364.688 472.336 364.438 471.824 364.438ZM471.824 363.656C472.645 363.656 473.27 363.977 473.699 364.625 474.129 365.27 474.348 366.207 474.348 367.438 474.348 368.664 474.129 369.602 473.699 370.25 473.27 370.895 472.645 371.219 471.824 371.219 471.008 371.219 470.387 370.895 469.953 370.25 469.523 369.602 469.309 368.664 469.309 367.438 469.309 366.207 469.523 365.27 469.953 364.625 470.387 363.977 471.008 363.656 471.824 363.656ZM471.824 363.656"/>
<path d="M209.906 377.523H214.934V378.523H211.09V381.102H214.559V382.098H211.09V386.273H209.906ZM209.906 377.523"/>
<path d="M215.891 379.711H216.969V386.273H215.891ZM215.891 377.156H216.969V378.523H215.891ZM215.891 377.156"/>
<path d="M224.68 382.312V386.273H223.602V382.348C223.602 381.727 223.48 381.262 223.238 380.953 222.996 380.645 222.633 380.492 222.148 380.492 221.566 380.492 221.109 380.676 220.77 381.047 220.434 381.418 220.266 381.926 220.266 382.566V386.273H219.184V379.711H220.266V380.73C220.527 380.336 220.828 380.043 221.18 379.848 221.527 379.652 221.934 379.555 222.391 379.555 223.145 379.555 223.715 379.789 224.098 380.254 224.488 380.719 224.68 381.406 224.68 382.312ZM224.68 382.312"/>
<path d="M232.445 382.723V383.25H227.484C227.535 383.992 227.758 384.559 228.156 384.945 228.559 385.336 229.113 385.531 229.828 385.531 230.242 385.531 230.645 385.48 231.035 385.379 231.422 385.277 231.809 385.125 232.191 384.922V385.941C231.805 386.105 231.406 386.23 231 386.316 230.594 386.402 230.184 386.445 229.766 386.445 228.719 386.445 227.891 386.141 227.277 385.531 226.668 384.922 226.359 384.098 226.359 383.055 226.359 381.984 226.652 381.133 227.23 380.5 227.812 379.871 228.594 379.555 229.578 379.555 230.461 379.555 231.16 379.84 231.672 380.406 232.188 380.977 232.445 381.746 232.445 382.723ZM231.367 382.406C231.359 381.816 231.191 381.348 230.871 380.996 230.547 380.645 230.121 380.469 229.59 380.469 228.988 380.469 228.508 380.637 228.145 380.977 227.785 381.316 227.578 381.797 227.523 382.414ZM231.367 382.406"/>
<path d="M233.668 382.508H236.828V383.469H233.668Z"/>
<path d="M239.609 377.848V379.711H241.828V380.551H239.609V384.113C239.609 384.648 239.684 384.992 239.828 385.145 239.977 385.297 240.273 385.371 240.723 385.371H241.828V386.273H240.723C239.891 386.273 239.316 386.117 239 385.809 238.684 385.496 238.527 384.934 238.527 384.113V380.551H237.734V379.711H238.527V377.848ZM239.609 377.848"/>
<path d="M243.137 383.684V379.711H244.215V383.645C244.215 384.266 244.336 384.73 244.578 385.043 244.82 385.352 245.184 385.508 245.668 385.508 246.25 385.508 246.711 385.32 247.047 384.949 247.387 384.578 247.555 384.074 247.555 383.43V379.711H248.633V386.273H247.555V385.266C247.293 385.664 246.988 385.961 246.645 386.152 246.297 386.348 245.898 386.445 245.441 386.445 244.688 386.445 244.113 386.211 243.723 385.742 243.332 385.273 243.137 384.586 243.137 383.684ZM243.137 383.684"/>
<path d="M256.309 382.312V386.273H255.23V382.348C255.23 381.727 255.109 381.262 254.867 380.953 254.625 380.645 254.262 380.492 253.777 380.492 253.195 380.492 252.738 380.676 252.398 381.047 252.062 381.418 251.895 381.926 251.895 382.566V386.273H250.812V379.711H251.895V380.73C252.156 380.336 252.457 380.043 252.809 379.848 253.156 379.652 253.562 379.555 254.02 379.555 254.773 379.555 255.344 379.789 255.727 380.254 256.117 380.719 256.309 381.406 256.309 382.312ZM256.309 382.312"/>
<path d="M264.074 382.723V383.25H259.113C259.164 383.992 259.387 384.559 259.785 384.945 260.188 385.336 260.742 385.531 261.457 385.531 261.871 385.531 262.273 385.48 262.664 385.379 263.051 385.277 263.438 385.125 263.82 384.922V385.941C263.434 386.105 263.035 386.23 262.629 386.316 262.223 386.402 261.812 386.445 261.395 386.445 260.348 386.445 259.52 386.141 258.906 385.531 258.297 384.922 257.988 384.098 257.988 383.055 257.988 381.984 258.281 381.133 258.859 380.5 259.441 379.871 260.223 379.555 261.207 379.555 262.09 379.555 262.789 379.84 263.301 380.406 263.816 380.977 264.074 381.746 264.074 382.723ZM262.996 382.406C262.988 381.816 262.82 381.348 262.5 380.996 262.176 380.645 261.75 380.469 261.219 380.469 260.617 380.469 260.137 380.637 259.773 380.977 259.414 381.316 259.207 381.797 259.152 382.414ZM262.996 382.406"/>
<path d="M268.488 377.523H275.891V378.523H272.785V386.273H271.598V378.523H268.488ZM268.488 377.523"/>
<path d="M276.609 379.711H277.688V386.273H276.609ZM276.609 377.156H277.688V378.523H276.609ZM276.609 377.156"/>
<path d="M285.055 380.973C285.324 380.488 285.648 380.129 286.023 379.898 286.398 379.668 286.84 379.555 287.348 379.555 288.031 379.555 288.559 379.793 288.93 380.273 289.301 380.75 289.484 381.43 289.484 382.312V386.273H288.402V382.348C288.402 381.719 288.289 381.254 288.066 380.949 287.844 380.645 287.504 380.492 287.047 380.492 286.488 380.492 286.047 380.676 285.723 381.047 285.398 381.418 285.238 381.926 285.238 382.566V386.273H284.152V382.348C284.152 381.715 284.043 381.246 283.82 380.945 283.598 380.645 283.254 380.492 282.789 380.492 282.238 380.492 281.797 380.68 281.473 381.051 281.148 381.422 280.988 381.93 280.988 382.566V386.273H279.902V379.711H280.988V380.73C281.234 380.328 281.527 380.031 281.871 379.84 282.215 379.648 282.625 379.555 283.098 379.555 283.574 379.555 283.98 379.676 284.312 379.918 284.648 380.16 284.895 380.512 285.055 380.973ZM285.055 380.973"/>
<path d="M297.25 382.723V383.25H292.289C292.34 383.992 292.562 384.559 292.961 384.945 293.363 385.336 293.918 385.531 294.633 385.531 295.047 385.531 295.449 385.48 295.84 385.379 296.227 385.277 296.613 385.125 296.996 384.922V385.941C296.609 386.105 296.211 386.23 295.805 386.316 295.398 386.402 294.988 386.445 294.57 386.445 293.523 386.445 292.695 386.141 292.082 385.531 291.473 384.922 291.164 384.098 291.164 383.055 291.164 381.984 291.457 381.133 292.035 380.5 292.617 379.871 293.398 379.555 294.383 379.555 295.266 379.555 295.965 379.84 296.477 380.406 296.992 380.977 297.25 381.746 297.25 382.723ZM296.172 382.406C296.164 381.816 295.996 381.348 295.676 380.996 295.352 380.645 294.926 380.469 294.395 380.469 293.793 380.469 293.312 380.637 292.949 380.977 292.59 381.316 292.383 381.797 292.328 382.414ZM296.172 382.406"/>
<path d="M305.422 377.168C304.898 378.066 304.512 378.957 304.254 379.836 304 380.715 303.875 381.605 303.875 382.508 303.875 383.41 304.004 384.301 304.258 385.188 304.516 386.07 304.902 386.961 305.422 387.855H304.484C303.898 386.938 303.461 386.035 303.168 385.148 302.879 384.262 302.734 383.383 302.734 382.508 302.734 381.637 302.875 380.758 303.164 379.875 303.457 378.992 303.895 378.09 304.484 377.168ZM305.422 377.168"/>
<path d="M312.621 380.973C312.895 380.488 313.215 380.129 313.59 379.898 313.965 379.668 314.406 379.555 314.914 379.555 315.598 379.555 316.125 379.793 316.496 380.273 316.867 380.75 317.055 381.43 317.055 382.312V386.273H315.969V382.348C315.969 381.719 315.859 381.254 315.633 380.949 315.41 380.645 315.07 380.492 314.617 380.492 314.059 380.492 313.617 380.676 313.289 381.047 312.965 381.418 312.805 381.926 312.805 382.566V386.273H311.723V382.348C311.723 381.715 311.609 381.246 311.387 380.945 311.164 380.645 310.82 380.492 310.355 380.492 309.805 380.492 309.367 380.68 309.043 381.051 308.719 381.422 308.555 381.93 308.555 382.566V386.273H307.473V379.711H308.555V380.73C308.801 380.328 309.098 380.031 309.441 379.84 309.785 379.648 310.191 379.555 310.664 379.555 311.145 379.555 311.547 379.676 311.883 379.918 312.215 380.16 312.461 380.512 312.621 380.973ZM312.621 380.973"/>
<path d="M319.035 377.168H319.973C320.559 378.09 320.996 378.992 321.285 379.875 321.578 380.758 321.723 381.637 321.723 382.508 321.723 383.383 321.578 384.262 321.285 385.148 320.996 386.035 320.559 386.938 319.973 387.855H319.035C319.555 386.961 319.941 386.07 320.195 385.188 320.453 384.301 320.582 383.41 320.582 382.508 320.582 381.605 320.453 380.715 320.195 379.836 319.941 378.957 319.555 378.066 319.035 377.168ZM319.035 377.168"/>
<g clip-path="url(#clip_24)">
<g>
<g clip-path="url(#clip_25)">
<path stroke-width=".8" stroke-linecap="butt" stroke-dasharray="2.96,1.28" stroke-linejoin="round" fill="none" stroke="#b0b0b0" stroke-opacity=".6" d="M42.539 344.957H488.938"/>
</g>
</g>
</g>
<path stroke-width=".8" stroke-linecap="butt" stroke-linejoin="round" fill="none" stroke="#000000" d="M42.539 344.957H39.039"/>
<path d="M32.355 342.117C31.848 342.117 31.465 342.367 31.211 342.867 30.953 343.367 30.828 344.117 30.828 345.121 30.828 346.117 30.953 346.867 31.211 347.367 31.465 347.867 31.848 348.117 32.355 348.117 32.867 348.117 33.25 347.867 33.504 347.367 33.762 346.867 33.891 346.117 33.891 345.121 33.891 344.117 33.762 343.367 33.504 342.867 33.25 342.367 32.867 342.117 32.355 342.117ZM32.355 341.336C33.172 341.336 33.797 341.66 34.227 342.305 34.66 342.953 34.875 343.891 34.875 345.121 34.875 346.348 34.66 347.285 34.227 347.93 33.797 348.578 33.172 348.898 32.355 348.898 31.539 348.898 30.914 348.578 30.484 347.93 30.051 347.285 29.836 346.348 29.836 345.121 29.836 343.891 30.051 342.953 30.484 342.305 30.914 341.66 31.539 341.336 32.355 341.336ZM32.355 341.336"/>
<g clip-path="url(#clip_26)">
<g>
<g clip-path="url(#clip_27)">
<path stroke-width=".8" stroke-linecap="butt" stroke-dasharray="2.96,1.28" stroke-linejoin="round" fill="none" stroke="#b0b0b0" stroke-opacity=".6" d="M42.539 284.957H488.938"/>
</g>
</g>
</g>
<path stroke-width=".8" stroke-linecap="butt" stroke-linejoin="round" fill="none" stroke="#000000" d="M42.539 284.957H39.039"/>
<path d="M24.055 287.926H25.664V282.363L23.914 282.715V281.816L25.656 281.465H26.641V287.926H28.254V288.758H24.055ZM24.055 287.926"/>
<path d="M32.355 282.117C31.848 282.117 31.465 282.367 31.207 282.867 30.953 283.367 30.824 284.117 30.824 285.121 30.824 286.117 30.953 286.867 31.207 287.367 31.465 287.867 31.848 288.117 32.355 288.117 32.867 288.117 33.25 287.867 33.504 287.367 33.762 286.867 33.887 286.117 33.887 285.121 33.887 284.117 33.762 283.367 33.504 282.867 33.25 282.367 32.867 282.117 32.355 282.117ZM32.355 281.336C33.172 281.336 33.797 281.66 34.227 282.305 34.66 282.953 34.875 283.891 34.875 285.121 34.875 286.348 34.66 287.285 34.227 287.93 33.797 288.578 33.172 288.898 32.355 288.898 31.539 288.898 30.914 288.578 30.48 287.93 30.051 287.285 29.836 286.348 29.836 285.121 29.836 283.891 30.051 282.953 30.48 282.305 30.914 281.66 31.539 281.336 32.355 281.336ZM32.355 281.336"/>
<g clip-path="url(#clip_28)">
<g>
<g clip-path="url(#clip_29)">
<path stroke-width=".8" stroke-linecap="butt" stroke-dasharray="2.96,1.28" stroke-linejoin="round" fill="none" stroke="#b0b0b0" stroke-opacity=".6" d="M42.539 224.957H488.938"/>
</g>
</g>
</g>
<path stroke-width=".8" stroke-linecap="butt" stroke-linejoin="round" fill="none" stroke="#000000" d="M42.539 224.957H39.039"/>
<path d="M24.734 227.926H28.176V228.758H23.547V227.926C23.922 227.539 24.43 227.02 25.078 226.367 25.723 225.715 26.129 225.293 26.297 225.105 26.609 224.75 26.832 224.449 26.957 224.203 27.082 223.957 27.145 223.715 27.145 223.48 27.145 223.09 27.008 222.777 26.738 222.531 26.465 222.289 26.109 222.164 25.676 222.164 25.367 222.164 25.039 222.219 24.695 222.324 24.352 222.434 23.984 222.598 23.594 222.816V221.816C23.992 221.66 24.363 221.539 24.707 221.457 25.055 221.375 25.371 221.336 25.656 221.336 26.41 221.336 27.012 221.523 27.461 221.902 27.91 222.281 28.137 222.785 28.137 223.414 28.137 223.715 28.078 224 27.969 224.27 27.855 224.535 27.652 224.852 27.355 225.215 27.273 225.312 27.016 225.586 26.578 226.035 26.141 226.484 25.527 227.117 24.734 227.926ZM24.734 227.926"/>
<path d="M32.355 222.117C31.848 222.117 31.465 222.367 31.207 222.867 30.953 223.367 30.824 224.117 30.824 225.121 30.824 226.117 30.953 226.867 31.207 227.367 31.465 227.867 31.848 228.117 32.355 228.117 32.867 228.117 33.25 227.867 33.504 227.367 33.762 226.867 33.887 226.117 33.887 225.121 33.887 224.117 33.762 223.367 33.504 222.867 33.25 222.367 32.867 222.117 32.355 222.117ZM32.355 221.336C33.172 221.336 33.797 221.66 34.227 222.305 34.66 222.953 34.875 223.891 34.875 225.121 34.875 226.348 34.66 227.285 34.227 227.93 33.797 228.578 33.172 228.898 32.355 228.898 31.539 228.898 30.914 228.578 30.48 227.93 30.051 227.285 29.836 226.348 29.836 225.121 29.836 223.891 30.051 222.953 30.48 222.305 30.914 221.66 31.539 221.336 32.355 221.336ZM32.355 221.336"/>
<g clip-path="url(#clip_30)">
<g>
<g clip-path="url(#clip_31)">
<path stroke-width=".8" stroke-linecap="butt" stroke-dasharray="2.96,1.28" stroke-linejoin="round" fill="none" stroke="#b0b0b0" stroke-opacity=".6" d="M42.539 164.957H488.938"/>
</g>
</g>
</g>
<path stroke-width=".8" stroke-linecap="butt" stroke-linejoin="round" fill="none" stroke="#000000" d="M42.539 164.957H39.039"/>
<path d="M26.871 164.824C27.344 164.926 27.711 165.137 27.977 165.457 28.242 165.777 28.375 166.168 28.375 166.637 28.375 167.355 28.129 167.914 27.633 168.309 27.137 168.703 26.434 168.898 25.523 168.898 25.219 168.898 24.902 168.867 24.578 168.809 24.254 168.75 23.922 168.656 23.578 168.535V167.586C23.848 167.746 24.148 167.863 24.473 167.945 24.801 168.027 25.141 168.066 25.496 168.066 26.113 168.066 26.582 167.945 26.906 167.703 27.23 167.457 27.395 167.105 27.395 166.637 27.395 166.207 27.242 165.871 26.941 165.629 26.641 165.387 26.223 165.266 25.688 165.266H24.836V164.457H25.727C26.211 164.457 26.578 164.359 26.836 164.164 27.094 163.973 27.223 163.691 27.223 163.328 27.223 162.953 27.09 162.668 26.824 162.465 26.559 162.266 26.18 162.164 25.688 162.164 25.414 162.164 25.125 162.195 24.816 162.254 24.508 162.312 24.164 162.402 23.797 162.527V161.648C24.172 161.543 24.52 161.465 24.848 161.414 25.176 161.359 25.484 161.336 25.773 161.336 26.523 161.336 27.113 161.504 27.551 161.848 27.984 162.188 28.203 162.645 28.203 163.223 28.203 163.629 28.09 163.969 27.859 164.246 27.625 164.527 27.297 164.719 26.871 164.824ZM26.871 164.824"/>
<path d="M32.355 162.117C31.848 162.117 31.465 162.367 31.207 162.867 30.953 163.367 30.824 164.117 30.824 165.121 30.824 166.117 30.953 166.867 31.207 167.367 31.465 167.867 31.848 168.117 32.355 168.117 32.867 168.117 33.25 167.867 33.504 167.367 33.762 166.867 33.887 166.117 33.887 165.121 33.887 164.117 33.762 163.367 33.504 162.867 33.25 162.367 32.867 162.117 32.355 162.117ZM32.355 161.336C33.172 161.336 33.797 161.66 34.227 162.305 34.66 162.953 34.875 163.891 34.875 165.121 34.875 166.348 34.66 167.285 34.227 167.93 33.797 168.578 33.172 168.898 32.355 168.898 31.539 168.898 30.914 168.578 30.48 167.93 30.051 167.285 29.836 166.348 29.836 165.121 29.836 163.891 30.051 162.953 30.48 162.305 30.914 161.66 31.539 161.336 32.355 161.336ZM32.355 161.336"/>
<g clip-path="url(#clip_32)">
<g>
<g clip-path="url(#clip_33)">
<path stroke-width=".8" stroke-linecap="butt" stroke-dasharray="2.96,1.28" stroke-linejoin="round" fill="none" stroke="#b0b0b0" stroke-opacity=".6" d="M42.539 104.957H488.938"/>
</g>
</g>
</g>
<path stroke-width=".8" stroke-linecap="butt" stroke-linejoin="round" fill="none" stroke="#000000" d="M42.539 104.957H39.039"/>
<path d="M26.594 102.324 24.102 106.219H26.594ZM26.336 101.465H27.574V106.219H28.617V107.039H27.574V108.758H26.594V107.039H23.305V106.086ZM26.336 101.465"/>
<path d="M32.355 102.117C31.848 102.117 31.465 102.367 31.207 102.867 30.953 103.367 30.824 104.117 30.824 105.121 30.824 106.117 30.953 106.867 31.207 107.367 31.465 107.867 31.848 108.117 32.355 108.117 32.867 108.117 33.25 107.867 33.504 107.367 33.762 106.867 33.887 106.117 33.887 105.121 33.887 104.117 33.762 103.367 33.504 102.867 33.25 102.367 32.867 102.117 32.355 102.117ZM32.355 101.336C33.172 101.336 33.797 101.66 34.227 102.305 34.66 102.953 34.875 103.891 34.875 105.121 34.875 106.348 34.66 107.285 34.227 107.93 33.797 108.578 33.172 108.898 32.355 108.898 31.539 108.898 30.914 108.578 30.48 107.93 30.051 107.285 29.836 106.348 29.836 105.121 29.836 103.891 30.051 102.953 30.48 102.305 30.914 101.66 31.539 101.336 32.355 101.336ZM32.355 101.336"/>
<g clip-path="url(#clip_34)">
<g>
<g clip-path="url(#clip_35)">
<path stroke-width=".8" stroke-linecap="butt" stroke-dasharray="2.96,1.28" stroke-linejoin="round" fill="none" stroke="#b0b0b0" stroke-opacity=".6" d="M42.539 44.957H488.938"/>
</g>
</g>
</g>
<path stroke-width=".8" stroke-linecap="butt" stroke-linejoin="round" fill="none" stroke="#000000" d="M42.539 44.957H39.039"/>
<path d="M23.895 41.465H27.766V42.297H24.797V44.082C24.938 44.035 25.082 44 25.227 43.973 25.367 43.949 25.512 43.938 25.656 43.938 26.469 43.938 27.113 44.16 27.59 44.605 28.066 45.055 28.305 45.656 28.305 46.418 28.305 47.203 28.059 47.812 27.57 48.246 27.082 48.684 26.395 48.898 25.504 48.898 25.199 48.898 24.887 48.875 24.57 48.82 24.25 48.77 23.926 48.691 23.586 48.586V47.594C23.879 47.754 24.18 47.871 24.492 47.949 24.805 48.027 25.137 48.066 25.484 48.066 26.047 48.066 26.492 47.922 26.82 47.625 27.152 47.328 27.316 46.926 27.316 46.418 27.316 45.91 27.152 45.508 26.82 45.215 26.492 44.918 26.047 44.77 25.484 44.77 25.219 44.77 24.957 44.797 24.695 44.855 24.434 44.914 24.168 45.004 23.895 45.129ZM23.895 41.465"/>
<path d="M32.355 42.117C31.848 42.117 31.465 42.367 31.207 42.867 30.953 43.367 30.824 44.117 30.824 45.121 30.824 46.117 30.953 46.867 31.207 47.367 31.465 47.867 31.848 48.117 32.355 48.117 32.867 48.117 33.25 47.867 33.504 47.367 33.762 46.867 33.887 46.117 33.887 45.121 33.887 44.117 33.762 43.367 33.504 42.867 33.25 42.367 32.867 42.117 32.355 42.117ZM32.355 41.336C33.172 41.336 33.797 41.66 34.227 42.305 34.66 42.953 34.875 43.891 34.875 45.121 34.875 46.348 34.66 47.285 34.227 47.93 33.797 48.578 33.172 48.898 32.355 48.898 31.539 48.898 30.914 48.578 30.48 47.93 30.051 47.285 29.836 46.348 29.836 45.121 29.836 43.891 30.051 42.953 30.48 42.305 30.914 41.66 31.539 41.336 32.355 41.336ZM32.355 41.336"/>
<path d="M7.57 242.293H16.316V243.477H7.57Z"/>
<path d="M12.355 234.527H16.316V235.605H12.391C11.77 235.605 11.305 235.727 11 235.969 10.691 236.211 10.535 236.574 10.535 237.059 10.535 237.641 10.723 238.102 11.094 238.438 11.461 238.773 11.969 238.941 12.609 238.941H16.316V240.023H9.754V238.941H10.777C10.379 238.684 10.086 238.379 9.891 238.031 9.695 237.68 9.598 237.277 9.598 236.816 9.598 236.062 9.832 235.496 10.297 235.109 10.766 234.719 11.449 234.527 12.355 234.527ZM12.355 234.527"/>
<path d="M7.199 229.055H8.098V230.086C8.098 230.473 8.176 230.742 8.332 230.895 8.488 231.043 8.77 231.117 9.176 231.117H9.754V229.344H10.594V231.117H16.316V232.203H10.594V233.234H9.754V232.203H9.297C8.566 232.203 8.035 232.031 7.703 231.691 7.367 231.352 7.199 230.812 7.199 230.074ZM7.199 229.055"/>
<path d="M12.766 222.539H13.293V227.496C14.035 227.449 14.602 227.227 14.992 226.824 15.379 226.426 15.574 225.867 15.574 225.152 15.574 224.738 15.523 224.34 15.422 223.949 15.32 223.559 15.168 223.176 14.965 222.789H15.984C16.148 223.18 16.273 223.574 16.359 223.98 16.445 224.387 16.488 224.801 16.488 225.215 16.488 226.266 16.184 227.094 15.574 227.703 14.965 228.316 14.141 228.621 13.102 228.621 12.027 228.621 11.176 228.332 10.547 227.75 9.914 227.172 9.598 226.391 9.598 225.402 9.598 224.523 9.883 223.824 10.453 223.309 11.02 222.797 11.789 222.539 12.766 222.539ZM12.449 223.617C11.859 223.625 11.391 223.789 11.039 224.113 10.688 224.434 10.512 224.863 10.512 225.395 10.512 225.996 10.68 226.477 11.02 226.836 11.359 227.199 11.84 227.406 12.457 227.461ZM12.449 223.617"/>
<path d="M10.762 216.969C10.691 217.09 10.641 217.223 10.609 217.363 10.574 217.504 10.559 217.664 10.559 217.832 10.559 218.445 10.758 218.91 11.152 219.238 11.547 219.566 12.117 219.727 12.859 219.727H16.316V220.812H9.754V219.727H10.777C10.375 219.5 10.082 219.207 9.891 218.844 9.695 218.48 9.598 218.035 9.598 217.516 9.598 217.441 9.602 217.363 9.613 217.27 9.621 217.18 9.637 217.082 9.656 216.973ZM10.762 216.969"/>
<path d="M12.766 210.492H13.293V215.449C14.035 215.402 14.602 215.18 14.992 214.777 15.379 214.379 15.574 213.82 15.574 213.105 15.574 212.691 15.523 212.293 15.422 211.902 15.32 211.516 15.168 211.129 14.965 210.742H15.984C16.148 211.133 16.273 211.527 16.359 211.934 16.445 212.34 16.488 212.754 16.488 213.172 16.488 214.219 16.184 215.047 15.574 215.66 14.965 216.27 14.141 216.574 13.102 216.574 12.027 216.574 11.176 216.285 10.547 215.707 9.914 215.125 9.598 214.344 9.598 213.359 9.598 212.477 9.883 211.777 10.453 211.262 11.02 210.75 11.789 210.492 12.766 210.492ZM12.449 211.57C11.859 211.578 11.391 211.742 11.039 212.066 10.688 212.387 10.512 212.816 10.512 213.348 10.512 213.949 10.68 214.43 11.02 214.789 11.359 215.152 11.84 215.359 12.457 215.414ZM12.449 211.57"/>
<path d="M12.355 203.266H16.316V204.344H12.391C11.77 204.344 11.305 204.469 11 204.711 10.691 204.953 10.535 205.316 10.535 205.797 10.535 206.383 10.723 206.84 11.094 207.176 11.461 207.512 11.969 207.68 12.609 207.68H16.316V208.766H9.754V207.68H10.777C10.379 207.422 10.086 207.117 9.891 206.77 9.695 206.422 9.598 206.016 9.598 205.559 9.598 204.805 9.832 204.234 10.297 203.848 10.766 203.461 11.449 203.266 12.355 203.266ZM12.355 203.266"/>
<path d="M10.008 196.395H11.016C10.848 196.699 10.719 197.004 10.637 197.312 10.555 197.617 10.512 197.926 10.512 198.238 10.512 198.941 10.734 199.484 11.176 199.871 11.621 200.258 12.242 200.449 13.043 200.449 13.844 200.449 14.465 200.258 14.91 199.871 15.352 199.484 15.574 198.941 15.574 198.238 15.574 197.926 15.531 197.617 15.449 197.312 15.363 197.004 15.238 196.699 15.07 196.395H16.066C16.207 196.695 16.312 197.008 16.383 197.332 16.453 197.652 16.488 197.996 16.488 198.359 16.488 199.348 16.18 200.133 15.559 200.715 14.938 201.297 14.098 201.586 13.043 201.586 11.973 201.586 11.133 201.293 10.52 200.707 9.906 200.117 9.598 199.312 9.598 198.285 9.598 197.957 9.633 197.633 9.703 197.316 9.77 197 9.871 196.691 10.008 196.395ZM10.008 196.395"/>
<path d="M12.766 188.906H13.293V193.863C14.035 193.816 14.602 193.594 14.992 193.191 15.379 192.793 15.574 192.234 15.574 191.52 15.574 191.105 15.523 190.707 15.422 190.316 15.32 189.93 15.168 189.543 14.965 189.156H15.984C16.148 189.547 16.273 189.941 16.359 190.348 16.445 190.754 16.488 191.168 16.488 191.586 16.488 192.633 16.184 193.461 15.574 194.074 14.965 194.684 14.141 194.988 13.102 194.988 12.027 194.988 11.176 194.699 10.547 194.121 9.914 193.539 9.598 192.758 9.598 191.773 9.598 190.891 9.883 190.191 10.453 189.676 11.02 189.164 11.789 188.906 12.766 188.906ZM12.449 189.984C11.859 189.992 11.391 190.156 11.039 190.48 10.688 190.801 10.512 191.23 10.512 191.762 10.512 192.363 10.68 192.844 11.02 193.203 11.359 193.566 11.84 193.773 12.457 193.828ZM12.449 189.984"/>
<path d="M7.57 184.488V177.09H8.566V180.195H16.316V181.383H8.566V184.488ZM7.57 184.488"/>
<path d="M9.754 176.367V175.289H16.316V176.367ZM7.199 176.367V175.289H8.566V176.367ZM7.199 176.367"/>
<path d="M11.016 167.926C10.531 167.656 10.172 167.332 9.941 166.957 9.715 166.582 9.598 166.141 9.598 165.633 9.598 164.949 9.836 164.422 10.316 164.051 10.793 163.68 11.473 163.496 12.355 163.496H16.316V164.578H12.391C11.762 164.578 11.297 164.691 10.992 164.914 10.688 165.137 10.535 165.477 10.535 165.934 10.535 166.492 10.723 166.934 11.094 167.258 11.461 167.582 11.969 167.742 12.609 167.742H16.316V168.828H12.391C11.758 168.828 11.293 168.938 10.988 169.16 10.688 169.383 10.535 169.727 10.535 170.191 10.535 170.742 10.723 171.18 11.094 171.508 11.469 171.828 11.973 171.992 12.609 171.992H16.316V173.074H9.754V171.992H10.777C10.375 171.746 10.078 171.449 9.887 171.105 9.695 170.762 9.598 170.355 9.598 169.883 9.598 169.406 9.719 169 9.961 168.664 10.203 168.332 10.555 168.086 11.016 167.926ZM11.016 167.926"/>
<path d="M12.766 155.73H13.293V160.688C14.035 160.641 14.602 160.418 14.992 160.016 15.379 159.617 15.574 159.059 15.574 158.344 15.574 157.93 15.523 157.531 15.422 157.141 15.32 156.754 15.168 156.367 14.965 155.98H15.984C16.148 156.371 16.273 156.766 16.359 157.172 16.445 157.578 16.488 157.992 16.488 158.41 16.488 159.457 16.184 160.285 15.574 160.898 14.965 161.508 14.141 161.812 13.102 161.812 12.027 161.812 11.176 161.523 10.547 160.945 9.914 160.363 9.598 159.582 9.598 158.598 9.598 157.715 9.883 157.016 10.453 156.5 11.02 155.988 11.789 155.73 12.766 155.73ZM12.449 156.809C11.859 156.816 11.391 156.98 11.039 157.305 10.688 157.625 10.512 158.055 10.512 158.586 10.512 159.188 10.68 159.668 11.02 160.027 11.359 160.391 11.84 160.598 12.457 160.652ZM12.449 156.809"/>
<path d="M7.215 147.559C8.109 148.082 9 148.469 9.879 148.723 10.758 148.977 11.648 149.105 12.551 149.105 13.453 149.105 14.344 148.977 15.23 148.723 16.117 148.465 17.004 148.078 17.902 147.559V148.496C16.98 149.082 16.078 149.52 15.191 149.809 14.309 150.102 13.426 150.246 12.551 150.246 11.68 150.246 10.805 150.102 9.922 149.812 9.035 149.523 8.133 149.086 7.215 148.496ZM7.215 147.559"/>
<path d="M9.949 141.281H10.969C10.812 141.586 10.695 141.902 10.617 142.23 10.539 142.559 10.5 142.898 10.5 143.25 10.5 143.785 10.582 144.188 10.746 144.457 10.91 144.723 11.156 144.855 11.484 144.855 11.734 144.855 11.93 144.762 12.074 144.57 12.215 144.379 12.352 143.992 12.48 143.414L12.562 143.047C12.727 142.281 12.957 141.738 13.258 141.414 13.555 141.09 13.973 140.93 14.508 140.93 15.117 140.93 15.602 141.172 15.957 141.652 16.312 142.137 16.488 142.801 16.488 143.645 16.488 143.996 16.453 144.359 16.387 144.742 16.316 145.125 16.215 145.523 16.078 145.945H14.965C15.172 145.547 15.328 145.156 15.43 144.77 15.535 144.383 15.586 144 15.586 143.617 15.586 143.113 15.5 142.723 15.324 142.449 15.152 142.176 14.906 142.039 14.59 142.039 14.297 142.039 14.074 142.137 13.918 142.336 13.762 142.531 13.609 142.965 13.465 143.633L13.375 144.008C13.234 144.676 13.02 145.156 12.73 145.453 12.438 145.75 12.039 145.898 11.531 145.898 10.914 145.898 10.438 145.68 10.102 145.242 9.766 144.805 9.598 144.184 9.598 143.379 9.598 142.98 9.629 142.605 9.688 142.258 9.742 141.902 9.832 141.578 9.949 141.281ZM9.949 141.281"/>
<path d="M7.215 139.383V138.445C8.133 137.859 9.035 137.422 9.922 137.133 10.805 136.84 11.68 136.695 12.551 136.695 13.426 136.695 14.309 136.84 15.191 137.133 16.078 137.422 16.98 137.859 17.902 138.445V139.383C17.004 138.863 16.117 138.477 15.23 138.219 14.344 137.965 13.453 137.836 12.551 137.836 11.648 137.836 10.758 137.965 9.879 138.219 9 138.477 8.109 138.863 7.215 139.383ZM7.215 139.383"/>
<path stroke-width=".8" stroke-linecap="square" stroke-miterlimit="4" stroke-linejoin="miter" fill="none" stroke="#000000" d="M42.539 356.477V23.836"/>
<path stroke-width=".8" stroke-linecap="square" stroke-miterlimit="4" stroke-linejoin="miter" fill="none" stroke="#000000" d="M488.938 356.477V23.836"/>
<path stroke-width=".8" stroke-linecap="square" stroke-miterlimit="4" stroke-linejoin="miter" fill="none" stroke="#000000" d="M42.539 356.477H488.938"/>
<path stroke-width=".8" stroke-linecap="square" stroke-miterlimit="4" stroke-linejoin="miter" fill="none" stroke="#000000" d="M42.539 23.836H488.938"/>
<path d="M406.391 320.395H411.941V321.145H409.613V326.957H408.719V321.145H406.391ZM406.391 320.395"/>
<path d="M415.441 324.293V324.691H411.727C411.762 325.246 411.93 325.672 412.227 325.961 412.527 326.254 412.945 326.398 413.484 326.398 413.793 326.398 414.094 326.363 414.387 326.285 414.676 326.211 414.965 326.094 415.254 325.941V326.707C414.965 326.832 414.668 326.926 414.363 326.988 414.059 327.055 413.746 327.086 413.434 327.086 412.648 327.086 412.027 326.859 411.57 326.402 411.109 325.945 410.883 325.324 410.883 324.543 410.883 323.738 411.098 323.102 411.535 322.629 411.969 322.156 412.555 321.918 413.293 321.918 413.957 321.918 414.48 322.133 414.863 322.559 415.25 322.984 415.441 323.562 415.441 324.293ZM414.633 324.059C414.629 323.613 414.504 323.262 414.262 323 414.02 322.734 413.699 322.602 413.301 322.602 412.852 322.602 412.492 322.73 412.219 322.984 411.949 323.238 411.793 323.598 411.75 324.062ZM414.633 324.059"/>
<path d="M420.703 322.035 418.926 324.43 420.797 326.957H419.844L418.41 325.023 416.977 326.957H416.023L417.934 324.383 416.188 322.035H417.141L418.445 323.789 419.75 322.035ZM420.703 322.035"/>
<path d="M422.738 320.637V322.035H424.402V322.664H422.738V325.336C422.738 325.738 422.793 325.996 422.902 326.109 423.012 326.223 423.238 326.281 423.574 326.281H424.402V326.957H423.574C422.949 326.957 422.52 326.84 422.281 326.609 422.043 326.375 421.926 325.953 421.926 325.336V322.664H421.332V322.035H421.926V320.637ZM422.738 320.637"/>
<path d="M428.328 322.035H429.137V326.957H428.328ZM428.328 320.121H429.137V321.145H428.328ZM428.328 320.121"/>
<path d="M434.922 323.988V326.957H434.113V324.012C434.113 323.547 434.02 323.199 433.84 322.969 433.656 322.738 433.387 322.621 433.023 322.621 432.586 322.621 432.242 322.762 431.988 323.039 431.738 323.316 431.609 323.695 431.609 324.176V326.957H430.797V322.035H431.609V322.801C431.805 322.504 432.031 322.285 432.293 322.137 432.555 321.992 432.859 321.918 433.203 321.918 433.766 321.918 434.195 322.094 434.484 322.441 434.773 322.793 434.922 323.309 434.922 323.988ZM434.922 323.988"/>
<path d="M435.953 322.035H436.809L438.348 326.168 439.887 322.035H440.742L438.898 326.957H437.797ZM435.953 322.035"/>
<path d="M446.07 324.293V324.691H442.352C442.387 325.246 442.555 325.672 442.855 325.961 443.156 326.254 443.574 326.398 444.109 326.398 444.418 326.398 444.719 326.363 445.012 326.285 445.305 326.211 445.594 326.094 445.879 325.941V326.707C445.59 326.832 445.293 326.926 444.988 326.988 444.684 327.055 444.375 327.086 444.062 327.086 443.273 327.086 442.652 326.859 442.195 326.402 441.738 325.945 441.508 325.324 441.508 324.543 441.508 323.738 441.727 323.102 442.16 322.629 442.594 322.156 443.18 321.918 443.922 321.918 444.582 321.918 445.105 322.133 445.492 322.559 445.875 322.984 446.07 323.562 446.07 324.293ZM445.262 324.059C445.254 323.613 445.133 323.262 444.891 323 444.648 322.734 444.328 322.602 443.93 322.602 443.477 322.602 443.117 322.73 442.848 322.984 442.574 323.238 442.418 323.598 442.379 324.062ZM445.262 324.059"/>
<path d="M450.246 322.793C450.156 322.738 450.059 322.699 449.949 322.676 449.844 322.652 449.727 322.637 449.598 322.637 449.141 322.637 448.789 322.785 448.543 323.082 448.301 323.379 448.18 323.809 448.18 324.363V326.957H447.363V322.035H448.18V322.801C448.348 322.5 448.57 322.281 448.84 322.137 449.113 321.992 449.445 321.918 449.836 321.918 449.891 321.918 449.953 321.922 450.02 321.93 450.086 321.938 450.16 321.945 450.242 321.961ZM450.246 322.793"/>
<path d="M454.234 322.18V322.945C454.004 322.828 453.77 322.742 453.523 322.684 453.277 322.625 453.02 322.594 452.758 322.594 452.355 322.594 452.055 322.656 451.855 322.777 451.652 322.902 451.555 323.086 451.555 323.332 451.555 323.52 451.625 323.668 451.77 323.773 451.91 323.883 452.199 323.984 452.633 324.078L452.91 324.141C453.484 324.266 453.895 324.438 454.137 324.66 454.375 324.887 454.496 325.199 454.496 325.598 454.496 326.059 454.316 326.418 453.953 326.688 453.594 326.953 453.098 327.086 452.465 327.086 452.199 327.086 451.926 327.059 451.641 327.008 451.352 326.957 451.051 326.879 450.734 326.777V325.941C451.035 326.098 451.328 326.215 451.621 326.293 451.91 326.371 452.195 326.406 452.48 326.406 452.863 326.406 453.156 326.344 453.359 326.211 453.562 326.082 453.668 325.898 453.668 325.66 453.668 325.441 453.594 325.273 453.445 325.156 453.297 325.039 452.973 324.926 452.473 324.816L452.191 324.75C451.691 324.645 451.328 324.484 451.105 324.266 450.883 324.047 450.77 323.75 450.77 323.367 450.77 322.906 450.934 322.547 451.262 322.297 451.59 322.043 452.059 321.918 452.66 321.918 452.961 321.918 453.238 321.941 453.504 321.984 453.77 322.027 454.012 322.094 454.234 322.18ZM454.234 322.18"/>
<path d="M455.785 322.035H456.594V326.957H455.785ZM455.785 320.121H456.594V321.145H455.785ZM455.785 320.121"/>
<path d="M460.191 322.602C459.758 322.602 459.418 322.773 459.164 323.109 458.914 323.449 458.785 323.914 458.785 324.5 458.785 325.09 458.91 325.555 459.16 325.891 459.414 326.23 459.758 326.398 460.191 326.398 460.625 326.398 460.965 326.23 461.215 325.891 461.469 325.551 461.594 325.086 461.594 324.5 461.594 323.918 461.469 323.457 461.215 323.113 460.965 322.773 460.625 322.602 460.191 322.602ZM460.191 321.918C460.895 321.918 461.449 322.148 461.848 322.605 462.25 323.062 462.453 323.691 462.453 324.5 462.453 325.305 462.25 325.938 461.848 326.398 461.449 326.855 460.895 327.086 460.191 327.086 459.488 327.086 458.934 326.855 458.531 326.398 458.133 325.938 457.934 325.305 457.934 324.5 457.934 323.691 458.133 323.062 458.531 322.605 458.934 322.148 459.488 321.918 460.191 321.918ZM460.191 321.918"/>
<path d="M467.883 323.988V326.957H467.074V324.012C467.074 323.547 466.984 323.199 466.801 322.969 466.621 322.738 466.348 322.621 465.984 322.621 465.547 322.621 465.203 322.762 464.953 323.039 464.699 323.316 464.574 323.695 464.574 324.176V326.957H463.762V322.035H464.574V322.801C464.77 322.504 464.996 322.285 465.258 322.137 465.52 321.992 465.824 321.918 466.164 321.918 466.73 321.918 467.16 322.094 467.449 322.441 467.738 322.793 467.883 323.309 467.883 323.988ZM467.883 323.988"/>
<path d="M113.164 236.902V237.836C112.863 237.559 112.547 237.352 112.207 237.215 111.867 237.078 111.508 237.008 111.129 237.008 110.379 237.008 109.805 237.238 109.406 237.695 109.008 238.152 108.809 238.816 108.809 239.684 108.809 240.547 109.008 241.211 109.406 241.668 109.805 242.125 110.379 242.355 111.129 242.355 111.508 242.355 111.867 242.285 112.207 242.148 112.547 242.012 112.863 241.805 113.164 241.523V242.453C112.852 242.664 112.523 242.824 112.176 242.93 111.828 243.035 111.461 243.086 111.074 243.086 110.082 243.086 109.301 242.781 108.727 242.176 108.156 241.566 107.871 240.734 107.871 239.684 107.871 238.629 108.156 237.797 108.727 237.191 109.301 236.582 110.082 236.277 111.074 236.277 111.469 236.277 111.836 236.332 112.184 236.434 112.531 236.539 112.859 236.695 113.164 236.902ZM113.164 236.902"/>
<path d="M114.414 241.016V238.035H115.223V240.984C115.223 241.449 115.316 241.801 115.496 242.035 115.676 242.266 115.949 242.383 116.312 242.383 116.75 242.383 117.094 242.242 117.348 241.965 117.602 241.688 117.73 241.309 117.73 240.824V238.035H118.539V242.957H117.73V242.203C117.531 242.5 117.305 242.723 117.047 242.867 116.785 243.012 116.484 243.086 116.141 243.086 115.578 243.086 115.148 242.91 114.855 242.559 114.562 242.207 114.414 241.691 114.414 241.016ZM114.414 241.016"/>
<path d="M123.34 238.18V238.945C123.113 238.828 122.875 238.742 122.629 238.684 122.383 238.625 122.129 238.594 121.863 238.594 121.461 238.594 121.16 238.656 120.961 238.777 120.762 238.902 120.66 239.086 120.66 239.332 120.66 239.52 120.73 239.668 120.875 239.773 121.02 239.883 121.309 239.984 121.742 240.078L122.02 240.141C122.594 240.266 123 240.438 123.242 240.66 123.484 240.887 123.605 241.199 123.605 241.598 123.605 242.059 123.422 242.418 123.062 242.688 122.699 242.953 122.203 243.086 121.57 243.086 121.305 243.086 121.031 243.059 120.746 243.008 120.461 242.957 120.16 242.879 119.844 242.777V241.941C120.141 242.098 120.438 242.215 120.727 242.293 121.016 242.371 121.305 242.406 121.586 242.406 121.969 242.406 122.262 242.344 122.465 242.211 122.672 242.082 122.773 241.898 122.773 241.66 122.773 241.441 122.699 241.273 122.551 241.156 122.402 241.039 122.078 240.926 121.578 240.816L121.297 240.75C120.797 240.645 120.434 240.484 120.211 240.266 119.988 240.047 119.879 239.75 119.879 239.367 119.879 238.906 120.043 238.547 120.371 238.297 120.699 238.043 121.164 237.918 121.77 237.918 122.066 237.918 122.348 237.941 122.609 237.984 122.875 238.027 123.117 238.094 123.34 238.18ZM123.34 238.18"/>
<path d="M125.691 236.637V238.035H127.355V238.664H125.691V241.336C125.691 241.738 125.746 241.996 125.855 242.109 125.965 242.223 126.191 242.281 126.527 242.281H127.355V242.957H126.527C125.902 242.957 125.473 242.84 125.234 242.609 124.996 242.375 124.879 241.953 124.879 241.336V238.664H124.285V238.035H124.879V236.637ZM125.691 236.637"/>
<path d="M130.328 238.602C129.895 238.602 129.551 238.773 129.301 239.109 129.047 239.449 128.922 239.914 128.922 240.5 128.922 241.09 129.047 241.555 129.297 241.891 129.547 242.23 129.891 242.398 130.328 242.398 130.758 242.398 131.102 242.23 131.352 241.891 131.602 241.551 131.73 241.086 131.73 240.5 131.73 239.918 131.602 239.457 131.352 239.113 131.102 238.773 130.758 238.602 130.328 238.602ZM130.328 237.918C131.031 237.918 131.582 238.148 131.984 238.605 132.387 239.062 132.586 239.691 132.586 240.5 132.586 241.305 132.387 241.938 131.984 242.398 131.582 242.855 131.031 243.086 130.328 243.086 129.621 243.086 129.066 242.855 128.668 242.398 128.27 241.938 128.07 241.305 128.07 240.5 128.07 239.691 128.27 239.062 128.668 238.605 129.066 238.148 129.621 237.918 130.328 237.918ZM130.328 237.918"/>
<path d="M137.758 238.98C137.961 238.617 138.203 238.348 138.484 238.176 138.766 238.004 139.098 237.918 139.477 237.918 139.988 237.918 140.387 238.098 140.664 238.457 140.941 238.816 141.082 239.324 141.082 239.988V242.957H140.27V240.012C140.27 239.543 140.184 239.191 140.016 238.965 139.852 238.734 139.598 238.621 139.254 238.621 138.836 238.621 138.504 238.762 138.258 239.039 138.016 239.316 137.895 239.695 137.895 240.176V242.957H137.082V240.012C137.082 239.539 137 239.188 136.832 238.961 136.664 238.734 136.406 238.621 136.059 238.621 135.645 238.621 135.316 238.762 135.074 239.039 134.828 239.32 134.707 239.699 134.707 240.176V242.957H133.895V238.035H134.707V238.801C134.895 238.5 135.113 238.277 135.371 238.133 135.629 237.988 135.938 237.918 136.289 237.918 136.648 237.918 136.953 238.008 137.203 238.191 137.453 238.371 137.641 238.637 137.758 238.98ZM137.758 238.98"/>
<path d="M146.477 237.125V242.227H147.551C148.457 242.227 149.117 242.023 149.539 241.613 149.957 241.203 150.168 240.555 150.168 239.672 150.168 238.793 149.957 238.148 149.539 237.738 149.117 237.332 148.457 237.125 147.551 237.125ZM145.59 236.395H147.414C148.684 236.395 149.617 236.66 150.211 237.188 150.809 237.719 151.105 238.547 151.105 239.672 151.105 240.801 150.805 241.633 150.207 242.164 149.609 242.691 148.68 242.957 147.414 242.957H145.59ZM145.59 236.395"/>
<path d="M152.484 238.035H153.293V242.957H152.484ZM152.484 236.121H153.293V237.145H152.484ZM152.484 236.121"/>
<path d="M157.477 236.121V236.793H156.703C156.414 236.793 156.211 236.852 156.098 236.969 155.988 237.086 155.93 237.297 155.93 237.602V238.035H157.262V238.664H155.93V242.957H155.117V238.664H154.344V238.035H155.117V237.691C155.117 237.145 155.246 236.746 155.5 236.496 155.754 236.246 156.16 236.121 156.711 236.121ZM157.477 236.121"/>
<path d="M160.645 236.121V236.793H159.871C159.582 236.793 159.383 236.852 159.266 236.969 159.156 237.086 159.098 237.297 159.098 237.602V238.035H160.43V238.664H159.098V242.957H158.285V238.664H157.512V238.035H158.285V237.691C158.285 237.145 158.414 236.746 158.668 236.496 158.922 236.246 159.328 236.121 159.879 236.121ZM160.645 236.121"/>
<path d="M161.238 241.016V238.035H162.047V240.984C162.047 241.449 162.137 241.801 162.32 242.035 162.5 242.266 162.773 242.383 163.137 242.383 163.574 242.383 163.918 242.242 164.172 241.965 164.426 241.688 164.551 241.309 164.551 240.824V238.035H165.359V242.957H164.551V242.203C164.355 242.5 164.129 242.723 163.867 242.867 163.609 243.012 163.309 243.086 162.965 243.086 162.402 243.086 161.973 242.91 161.68 242.559 161.387 242.207 161.238 241.691 161.238 241.016ZM161.238 241.016"/>
<path d="M170.164 238.18V238.945C169.938 238.828 169.699 238.742 169.453 238.684 169.207 238.625 168.953 238.594 168.688 238.594 168.285 238.594 167.984 238.656 167.785 238.777 167.582 238.902 167.484 239.086 167.484 239.332 167.484 239.52 167.555 239.668 167.699 239.773 167.844 239.883 168.129 239.984 168.566 240.078L168.844 240.141C169.414 240.266 169.824 240.438 170.066 240.66 170.309 240.887 170.43 241.199 170.43 241.598 170.43 242.059 170.246 242.418 169.887 242.688 169.523 242.953 169.027 243.086 168.395 243.086 168.129 243.086 167.855 243.059 167.57 243.008 167.285 242.957 166.98 242.879 166.668 242.777V241.941C166.965 242.098 167.262 242.215 167.551 242.293 167.84 242.371 168.125 242.406 168.41 242.406 168.793 242.406 169.086 242.344 169.289 242.211 169.496 242.082 169.598 241.898 169.598 241.66 169.598 241.441 169.523 241.273 169.375 241.156 169.227 241.039 168.902 240.926 168.402 240.816L168.121 240.75C167.621 240.645 167.258 240.484 167.035 240.266 166.812 240.047 166.703 239.75 166.703 239.367 166.703 238.906 166.867 238.547 167.195 238.297 167.523 238.043 167.988 237.918 168.59 237.918 168.891 237.918 169.172 237.941 169.434 237.984 169.699 238.027 169.941 238.094 170.164 238.18ZM170.164 238.18"/>
<path d="M171.715 238.035H172.523V242.957H171.715ZM171.715 236.121H172.523V237.145H171.715ZM171.715 236.121"/>
<path d="M176.121 238.602C175.691 238.602 175.348 238.773 175.094 239.109 174.844 239.449 174.715 239.914 174.715 240.5 174.715 241.09 174.84 241.555 175.094 241.891 175.344 242.23 175.688 242.398 176.121 242.398 176.555 242.398 176.895 242.23 177.145 241.891 177.398 241.551 177.523 241.086 177.523 240.5 177.523 239.918 177.398 239.457 177.145 239.113 176.895 238.773 176.555 238.602 176.121 238.602ZM176.121 237.918C176.824 237.918 177.379 238.148 177.777 238.605 178.18 239.062 178.383 239.691 178.383 240.5 178.383 241.305 178.18 241.938 177.777 242.398 177.379 242.855 176.824 243.086 176.121 243.086 175.418 243.086 174.863 242.855 174.465 242.398 174.062 241.938 173.863 241.305 173.863 240.5 173.863 239.691 174.062 239.062 174.465 238.605 174.863 238.148 175.418 237.918 176.121 237.918ZM176.121 237.918"/>
<path d="M183.812 239.988V242.957H183.004V240.012C183.004 239.547 182.914 239.199 182.734 238.969 182.551 238.738 182.277 238.621 181.914 238.621 181.48 238.621 181.133 238.762 180.883 239.039 180.629 239.316 180.504 239.695 180.504 240.176V242.957H179.691V238.035H180.504V238.801C180.699 238.504 180.926 238.285 181.188 238.137 181.449 237.992 181.754 237.918 182.098 237.918 182.66 237.918 183.09 238.094 183.379 238.441 183.668 238.793 183.812 239.309 183.812 239.988ZM183.812 239.988"/>
<path d="M58.66 291.125V296.227H59.734C60.637 296.227 61.301 296.023 61.723 295.613 62.141 295.203 62.352 294.555 62.352 293.672 62.352 292.793 62.141 292.148 61.723 291.738 61.301 291.332 60.637 291.125 59.734 291.125ZM57.773 290.395H59.598C60.867 290.395 61.801 290.66 62.395 291.188 62.988 291.719 63.289 292.547 63.289 293.672 63.289 294.801 62.988 295.633 62.391 296.164 61.793 296.691 60.863 296.957 59.598 296.957H57.773ZM57.773 290.395"/>
<path d="M67.52 292.793C67.43 292.738 67.328 292.699 67.223 292.676 67.117 292.652 66.996 292.637 66.871 292.637 66.41 292.637 66.062 292.785 65.816 293.082 65.57 293.379 65.449 293.809 65.449 294.363V296.957H64.637V292.035H65.449V292.801C65.621 292.5 65.84 292.281 66.113 292.137 66.387 291.992 66.719 291.918 67.105 291.918 67.164 291.918 67.223 291.922 67.293 291.93 67.359 291.938 67.434 291.945 67.516 291.961ZM67.52 292.793"/>
<path d="M72.375 294.293V294.691H68.656C68.691 295.246 68.859 295.672 69.16 295.961 69.461 296.254 69.879 296.398 70.414 296.398 70.727 296.398 71.027 296.363 71.316 296.285 71.609 296.211 71.898 296.094 72.188 295.941V296.707C71.895 296.832 71.598 296.926 71.293 296.988 70.988 297.055 70.68 297.086 70.367 297.086 69.582 297.086 68.961 296.859 68.5 296.402 68.043 295.945 67.812 295.324 67.812 294.543 67.812 293.738 68.031 293.102 68.465 292.629 68.902 292.156 69.488 291.918 70.227 291.918 70.887 291.918 71.414 292.133 71.797 292.559 72.184 292.984 72.375 293.562 72.375 294.293ZM71.566 294.059C71.562 293.613 71.438 293.262 71.195 293 70.953 292.734 70.633 292.602 70.234 292.602 69.785 292.602 69.422 292.73 69.152 292.984 68.883 293.238 68.727 293.598 68.684 294.062ZM71.566 294.059"/>
<path d="M75.941 294.484C75.285 294.484 74.832 294.559 74.582 294.707 74.328 294.855 74.203 295.113 74.203 295.473 74.203 295.758 74.297 295.988 74.488 296.156 74.676 296.324 74.934 296.406 75.258 296.406 75.707 296.406 76.066 296.25 76.336 295.93 76.609 295.613 76.742 295.191 76.742 294.664V294.484ZM77.551 294.148V296.957H76.742V296.211C76.559 296.508 76.328 296.73 76.055 296.871 75.777 297.016 75.441 297.086 75.043 297.086 74.539 297.086 74.137 296.945 73.84 296.66 73.543 296.379 73.395 296 73.395 295.523 73.395 294.973 73.578 294.555 73.949 294.273 74.32 293.992 74.875 293.852 75.609 293.852H76.742V293.77C76.742 293.398 76.621 293.109 76.375 292.906 76.133 292.703 75.789 292.602 75.348 292.602 75.066 292.602 74.789 292.637 74.523 292.703 74.258 292.77 74 292.871 73.754 293.008V292.258C74.051 292.145 74.336 292.059 74.617 292.004 74.895 291.945 75.164 291.918 75.43 291.918 76.141 291.918 76.672 292.102 77.023 292.473 77.375 292.84 77.551 293.398 77.551 294.148ZM77.551 294.148"/>
<path d="M83.051 292.98C83.25 292.617 83.492 292.348 83.773 292.176 84.055 292.004 84.387 291.918 84.77 291.918 85.281 291.918 85.676 292.098 85.953 292.457 86.234 292.816 86.371 293.324 86.371 293.988V296.957H85.559V294.012C85.559 293.543 85.477 293.191 85.309 292.965 85.141 292.734 84.887 292.621 84.543 292.621 84.125 292.621 83.793 292.762 83.551 293.039 83.309 293.316 83.188 293.695 83.188 294.176V296.957H82.371V294.012C82.371 293.539 82.289 293.188 82.121 292.961 81.957 292.734 81.699 292.621 81.348 292.621 80.938 292.621 80.605 292.762 80.363 293.039 80.121 293.32 80 293.699 80 294.176V296.957H79.188V292.035H80V292.801C80.184 292.5 80.406 292.277 80.664 292.133 80.922 291.988 81.227 291.918 81.582 291.918 81.938 291.918 82.242 292.008 82.492 292.191 82.746 292.371 82.93 292.637 83.051 292.98ZM83.051 292.98"/>
<path d="M88.906 293.824V296.227H90.332C90.809 296.227 91.16 296.129 91.391 295.93 91.621 295.734 91.738 295.43 91.738 295.023 91.738 294.613 91.621 294.312 91.391 294.117 91.16 293.922 90.809 293.824 90.332 293.824ZM88.906 291.125V293.102H90.223C90.656 293.102 90.977 293.023 91.188 292.859 91.402 292.695 91.508 292.449 91.508 292.113 91.508 291.785 91.402 291.535 91.188 291.371 90.977 291.207 90.656 291.125 90.223 291.125ZM88.02 290.395H90.289C90.965 290.395 91.484 290.535 91.852 290.816 92.219 291.098 92.402 291.5 92.402 292.02 92.402 292.418 92.309 292.738 92.121 292.977 91.934 293.215 91.656 293.363 91.293 293.418 91.73 293.512 92.07 293.711 92.312 294.008 92.555 294.305 92.676 294.676 92.676 295.121 92.676 295.707 92.477 296.16 92.078 296.48 91.68 296.797 91.109 296.957 90.375 296.957H88.02ZM88.02 290.395"/>
<path d="M96.066 292.602C95.633 292.602 95.289 292.773 95.039 293.109 94.785 293.449 94.66 293.914 94.66 294.5 94.66 295.09 94.785 295.555 95.035 295.891 95.285 296.23 95.629 296.398 96.066 296.398 96.496 296.398 96.84 296.23 97.09 295.891 97.34 295.551 97.469 295.086 97.469 294.5 97.469 293.918 97.34 293.457 97.09 293.113 96.84 292.773 96.496 292.602 96.066 292.602ZM96.066 291.918C96.77 291.918 97.32 292.148 97.723 292.605 98.125 293.062 98.324 293.691 98.324 294.5 98.324 295.305 98.125 295.938 97.723 296.398 97.32 296.855 96.77 297.086 96.066 297.086 95.359 297.086 94.805 296.855 94.406 296.398 94.008 295.938 93.809 295.305 93.809 294.5 93.809 293.691 94.008 293.062 94.406 292.605 94.805 292.148 95.359 291.918 96.066 291.918ZM96.066 291.918"/>
<path d="M101.57 292.602C101.141 292.602 100.797 292.773 100.543 293.109 100.293 293.449 100.164 293.914 100.164 294.5 100.164 295.09 100.289 295.555 100.543 295.891 100.793 296.23 101.137 296.398 101.57 296.398 102.004 296.398 102.344 296.23 102.598 295.891 102.848 295.551 102.973 295.086 102.973 294.5 102.973 293.918 102.848 293.457 102.598 293.113 102.344 292.773 102.004 292.602 101.57 292.602ZM101.57 291.918C102.273 291.918 102.828 292.148 103.23 292.605 103.629 293.062 103.832 293.691 103.832 294.5 103.832 295.305 103.629 295.938 103.23 296.398 102.828 296.855 102.273 297.086 101.57 297.086 100.867 297.086 100.312 296.855 99.914 296.398 99.512 295.938 99.312 295.305 99.312 294.5 99.312 293.691 99.512 293.062 99.914 292.605 100.312 292.148 100.867 291.918 101.57 291.918ZM101.57 291.918"/>
<path d="M105.973 290.637V292.035H107.637V292.664H105.973V295.336C105.973 295.738 106.027 295.996 106.137 296.109 106.246 296.223 106.469 296.281 106.809 296.281H107.637V296.957H106.809C106.184 296.957 105.75 296.84 105.516 296.609 105.277 296.375 105.16 295.953 105.16 295.336V292.664H104.566V292.035H105.16V290.637ZM105.973 290.637"/>
<path d="M112.793 293.988V296.957H111.984V294.012C111.984 293.547 111.895 293.199 111.711 292.969 111.527 292.738 111.258 292.621 110.895 292.621 110.457 292.621 110.113 292.762 109.859 293.039 109.609 293.316 109.48 293.695 109.48 294.176V296.957H108.668V290.121H109.48V292.801C109.676 292.504 109.902 292.285 110.164 292.137 110.43 291.992 110.73 291.918 111.074 291.918 111.641 291.918 112.066 292.094 112.355 292.441 112.648 292.793 112.793 293.309 112.793 293.988ZM112.793 293.988"/>
<path d="M124.848 32.613V33.477C124.508 33.316 124.191 33.195 123.891 33.117 123.594 33.039 123.305 33 123.027 33 122.543 33 122.172 33.094 121.91 33.281 121.645 33.469 121.516 33.734 121.516 34.078 121.516 34.371 121.602 34.59 121.777 34.738 121.949 34.887 122.281 35.004 122.766 35.094L123.305 35.203C123.965 35.332 124.453 35.555 124.77 35.871 125.082 36.188 125.242 36.613 125.242 37.148 125.242 37.781 125.027 38.266 124.602 38.594 124.176 38.922 123.551 39.086 122.727 39.086 122.418 39.086 122.086 39.051 121.738 38.98 121.387 38.91 121.023 38.805 120.648 38.668V37.754C121.008 37.957 121.363 38.109 121.707 38.211 122.055 38.312 122.395 38.363 122.727 38.363 123.234 38.363 123.625 38.266 123.902 38.066 124.176 37.867 124.312 37.582 124.312 37.211 124.312 36.891 124.215 36.641 124.02 36.457 123.82 36.277 123.496 36.141 123.043 36.047L122.504 35.941C121.84 35.812 121.363 35.605 121.066 35.324 120.77 35.043 120.621 34.652 120.621 34.148 120.621 33.57 120.828 33.113 121.234 32.777 121.645 32.445 122.207 32.277 122.926 32.277 123.234 32.277 123.547 32.305 123.867 32.363 124.184 32.418 124.512 32.5 124.848 32.613ZM124.848 32.613"/>
<path d="M127.391 32.637V34.035H129.055V34.664H127.391V37.336C127.391 37.738 127.445 37.996 127.555 38.109 127.664 38.223 127.887 38.281 128.227 38.281H129.055V38.957H128.227C127.602 38.957 127.172 38.84 126.934 38.609 126.695 38.375 126.578 37.953 126.578 37.336V34.664H125.984V34.035H126.578V32.637ZM127.391 32.637"/>
<path d="M132.168 39.414C131.938 40 131.715 40.383 131.5 40.562 131.281 40.738 130.992 40.828 130.629 40.828H129.984V40.152H130.457C130.68 40.152 130.852 40.102 130.977 39.996 131.098 39.891 131.234 39.641 131.387 39.246L131.531 38.879 129.539 34.035H130.395L131.934 37.887 133.473 34.035H134.328ZM132.168 39.414"/>
<path d="M135.445 32.121H136.25402V38.956998H135.445Z"/>
<path d="M142.156 36.293V36.691H138.438C138.473 37.246 138.641 37.672 138.941 37.961 139.242 38.254 139.66 38.398 140.195 38.398 140.508 38.398 140.809 38.363 141.098 38.285 141.391 38.211 141.68 38.094 141.969 37.941V38.707C141.676 38.832 141.379 38.926 141.074 38.988 140.77 39.055 140.461 39.086 140.148 39.086 139.363 39.086 138.742 38.859 138.281 38.402 137.824 37.945 137.594 37.324 137.594 36.543 137.594 35.738 137.812 35.102 138.246 34.629 138.684 34.156 139.27 33.918 140.008 33.918 140.668 33.918 141.191 34.133 141.578 34.559 141.965 34.984 142.156 35.562 142.156 36.293ZM141.348 36.059C141.344 35.613 141.219 35.262 140.977 35 140.734 34.734 140.414 34.602 140.016 34.602 139.566 34.602 139.203 34.73 138.934 34.984 138.66 35.238 138.508 35.598 138.465 36.062ZM141.348 36.059"/>
<path d="M144.406 33.125V38.227H145.477C146.383 38.227 147.047 38.023 147.469 37.613 147.887 37.203 148.098 36.555 148.098 35.672 148.098 34.793 147.887 34.148 147.469 33.738 147.047 33.332 146.383 33.125 145.477 33.125ZM143.52 32.395H145.344C146.613 32.395 147.547 32.66 148.141 33.188 148.734 33.719 149.035 34.547 149.035 35.672 149.035 36.801 148.734 37.633 148.137 38.164 147.539 38.691 146.609 38.957 145.344 38.957H143.52ZM143.52 32.395"/>
<path d="M153.266 34.793C153.176 34.738 153.074 34.699 152.969 34.676 152.863 34.652 152.742 34.637 152.617 34.637 152.156 34.637 151.809 34.785 151.562 35.082 151.316 35.379 151.195 35.809 151.195 36.363V38.957H150.383V34.035H151.195V34.801C151.367 34.5 151.586 34.281 151.859 34.137 152.133 33.992 152.465 33.918 152.852 33.918 152.91 33.918 152.969 33.922 153.039 33.93 153.105 33.938 153.18 33.945 153.262 33.961ZM153.266 34.793"/>
<path d="M155.816 34.602C155.383 34.602 155.043 34.773 154.789 35.109 154.539 35.449 154.41 35.914 154.41 36.5 154.41 37.09 154.535 37.555 154.785 37.891 155.039 38.23 155.383 38.398 155.816 38.398 156.25 38.398 156.59 38.23 156.84 37.891 157.094 37.551 157.219 37.086 157.219 36.5 157.219 35.918 157.094 35.457 156.84 35.113 156.59 34.773 156.25 34.602 155.816 34.602ZM155.816 33.918C156.52 33.918 157.074 34.148 157.473 34.605 157.875 35.062 158.078 35.691 158.078 36.5 158.078 37.305 157.875 37.938 157.473 38.398 157.074 38.855 156.52 39.086 155.816 39.086 155.113 39.086 154.559 38.855 154.16 38.398 153.758 37.938 153.559 37.305 153.559 36.5 153.559 35.691 153.758 35.062 154.16 34.605 154.559 34.148 155.113 33.918 155.816 33.918ZM155.816 33.918"/>
<path d="M160.199 38.219V40.828H159.387V34.035H160.199V34.781C160.371 34.488 160.586 34.273 160.844 34.133 161.102 33.988 161.414 33.918 161.773 33.918 162.371 33.918 162.855 34.156 163.23 34.629 163.605 35.105 163.789 35.727 163.789 36.5 163.789 37.273 163.605 37.898 163.23 38.375 162.855 38.848 162.371 39.086 161.773 39.086 161.414 39.086 161.102 39.016 160.844 38.871 160.586 38.73 160.371 38.512 160.199 38.219ZM162.949 36.5C162.949 35.906 162.828 35.441 162.586 35.102 162.34 34.762 162.004 34.594 161.574 34.594 161.148 34.594 160.812 34.762 160.566 35.102 160.32 35.441 160.199 35.906 160.199 36.5 160.199 37.094 160.32 37.562 160.566 37.898 160.812 38.238 161.148 38.406 161.574 38.406 162.004 38.406 162.34 38.238 162.586 37.898 162.828 37.562 162.949 37.094 162.949 36.5ZM162.949 36.5"/>
<path d="M100.18 302.395H101.067V308.957H100.18Z"/>
<path d="M106.891 305.988V308.957H106.082V306.012C106.082 305.547 105.992 305.199 105.809 304.969 105.625 304.738 105.355 304.621 104.992 304.621 104.555 304.621 104.211 304.762 103.957 305.039 103.707 305.316 103.578 305.695 103.578 306.176V308.957H102.766V304.035H103.578V304.801C103.773 304.504 104 304.285 104.262 304.137 104.527 303.992 104.828 303.918 105.172 303.918 105.738 303.918 106.164 304.094 106.453 304.441 106.746 304.793 106.891 305.309 106.891 305.988ZM106.891 305.988"/>
<path d="M111.641 304.18V304.945C111.41 304.828 111.176 304.742 110.93 304.684 110.684 304.625 110.426 304.594 110.164 304.594 109.762 304.594 109.461 304.656 109.262 304.777 109.059 304.902 108.961 305.086 108.961 305.332 108.961 305.52 109.031 305.668 109.176 305.773 109.316 305.883 109.605 305.984 110.039 306.078L110.316 306.141C110.891 306.266 111.301 306.438 111.539 306.66 111.781 306.887 111.902 307.199 111.902 307.598 111.902 308.059 111.723 308.418 111.359 308.688 111 308.953 110.5 309.086 109.867 309.086 109.605 309.086 109.332 309.059 109.043 309.008 108.758 308.957 108.457 308.879 108.141 308.777V307.941C108.441 308.098 108.734 308.215 109.023 308.293 109.316 308.371 109.602 308.406 109.887 308.406 110.27 308.406 110.559 308.344 110.766 308.211 110.969 308.082 111.074 307.898 111.074 307.66 111.074 307.441 111 307.273 110.852 307.156 110.703 307.039 110.379 306.926 109.879 306.816L109.598 306.75C109.094 306.645 108.734 306.484 108.512 306.266 108.289 306.047 108.176 305.75 108.176 305.367 108.176 304.906 108.34 304.547 108.668 304.297 108.996 304.043 109.465 303.918 110.066 303.918 110.367 303.918 110.645 303.941 110.91 303.984 111.176 304.027 111.418 304.094 111.641 304.18ZM111.641 304.18"/>
<path d="M113.992 302.637V304.035H115.656V304.664H113.992V307.336C113.992 307.738 114.047 307.996 114.156 308.109 114.266 308.223 114.488 308.281 114.828 308.281H115.656V308.957H114.828C114.203 308.957 113.77 308.84 113.535 308.609 113.297 308.375 113.18 307.953 113.18 307.336V304.664H112.586V304.035H113.18V302.637ZM113.992 302.637"/>
<path d="M118.957 306.484C118.305 306.484 117.852 306.559 117.598 306.707 117.348 306.855 117.219 307.113 117.219 307.473 117.219 307.758 117.316 307.988 117.504 308.156 117.695 308.324 117.949 308.406 118.273 308.406 118.723 308.406 119.086 308.25 119.355 307.93 119.625 307.613 119.762 307.191 119.762 306.664V306.484ZM120.57 306.148V308.957H119.762V308.211C119.578 308.508 119.348 308.73 119.07 308.871 118.797 309.016 118.457 309.086 118.059 309.086 117.555 309.086 117.156 308.945 116.859 308.66 116.559 308.379 116.41 308 116.41 307.523 116.41 306.973 116.598 306.555 116.969 306.273 117.34 305.992 117.891 305.852 118.625 305.852H119.762V305.77C119.762 305.398 119.641 305.109 119.395 304.906 119.148 304.703 118.805 304.602 118.363 304.602 118.082 304.602 117.809 304.637 117.543 304.703 117.273 304.77 117.02 304.871 116.773 305.008V304.258C117.07 304.145 117.355 304.059 117.633 304.004 117.914 303.945 118.184 303.918 118.445 303.918 119.16 303.918 119.691 304.102 120.043 304.473 120.395 304.84 120.57 305.398 120.57 306.148ZM120.57 306.148"/>
<path d="M126.203 302.613V303.477C125.867 303.316 125.551 303.195 125.25 303.117 124.949 303.039 124.66 303 124.383 303 123.902 303 123.527 303.094 123.266 303.281 123.004 303.469 122.871 303.734 122.871 304.078 122.871 304.371 122.961 304.59 123.133 304.738 123.309 304.887 123.637 305.004 124.125 305.094L124.66 305.203C125.324 305.332 125.812 305.555 126.125 305.871 126.441 306.188 126.598 306.613 126.598 307.148 126.598 307.781 126.387 308.266 125.957 308.594 125.531 308.922 124.91 309.086 124.086 309.086 123.773 309.086 123.445 309.051 123.094 308.98 122.746 308.91 122.383 308.805 122.008 308.668V307.754C122.367 307.957 122.719 308.109 123.066 308.211 123.41 308.312 123.75 308.363 124.086 308.363 124.59 308.363 124.984 308.266 125.258 308.066 125.535 307.867 125.672 307.582 125.672 307.211 125.672 306.891 125.574 306.641 125.375 306.457 125.176 306.277 124.852 306.141 124.402 306.047L123.859 305.941C123.199 305.812 122.719 305.605 122.422 305.324 122.129 305.043 121.98 304.652 121.98 304.148 121.98 303.57 122.184 303.113 122.594 302.777 123.004 302.445 123.566 302.277 124.281 302.277 124.59 302.277 124.906 302.305 125.223 302.363 125.543 302.418 125.871 302.5 126.203 302.613ZM126.203 302.613"/>
<path d="M128.746 302.637V304.035H130.414V304.664H128.746V307.336C128.746 307.738 128.805 307.996 128.914 308.109 129.023 308.223 129.246 308.281 129.582 308.281H130.414V308.957H129.582C128.957 308.957 128.527 308.84 128.289 308.609 128.055 308.375 127.934 307.953 127.934 307.336V304.664H127.34V304.035H127.934V302.637ZM128.746 302.637"/>
<path d="M133.523 309.414C133.297 310 133.074 310.383 132.855 310.562 132.641 310.738 132.352 310.828 131.988 310.828H131.34V310.152H131.816C132.039 310.152 132.211 310.102 132.332 309.996 132.457 309.891 132.594 309.641 132.742 309.246L132.887 308.879 130.898 304.035H131.754L133.293 307.887 134.832 304.035H135.688ZM133.523 309.414"/>
<path d="M136.805 302.121H137.614V308.957H136.805Z"/>
<path d="M143.512 306.293V306.691H139.797C139.832 307.246 140 307.672 140.301 307.961 140.598 308.254 141.016 308.398 141.555 308.398 141.863 308.398 142.164 308.363 142.457 308.285 142.746 308.211 143.039 308.094 143.324 307.941V308.707C143.035 308.832 142.738 308.926 142.434 308.988 142.129 309.055 141.82 309.086 141.504 309.086 140.719 309.086 140.098 308.859 139.641 308.402 139.18 307.945 138.953 307.324 138.953 306.543 138.953 305.738 139.168 305.102 139.605 304.629 140.039 304.156 140.625 303.918 141.363 303.918 142.027 303.918 142.551 304.133 142.938 304.559 143.32 304.984 143.512 305.562 143.512 306.293ZM142.703 306.059C142.699 305.613 142.574 305.262 142.332 305 142.094 304.734 141.773 304.602 141.375 304.602 140.922 304.602 140.562 304.73 140.289 304.984 140.02 305.238 139.863 305.598 139.82 306.062ZM142.703 306.059"/>
<path d="M45.199 335.398C44.555 335.398 44.043 335.637 43.664 336.121 43.285 336.598 43.094 337.254 43.094 338.086 43.094 338.91 43.285 339.562 43.664 340.043 44.043 340.523 44.555 340.766 45.199 340.766 45.844 340.766 46.355 340.523 46.73 340.043 47.109 339.562 47.297 338.91 47.297 338.086 47.297 337.254 47.109 336.598 46.73 336.121 46.355 335.637 45.844 335.398 45.199 335.398ZM45.199 334.68C46.121 334.68 46.855 334.988 47.406 335.602 47.957 336.219 48.23 337.047 48.23 338.086 48.23 339.117 47.957 339.945 47.406 340.559 46.855 341.176 46.121 341.484 45.199 341.484 44.277 341.484 43.539 341.18 42.984 340.562 42.434 339.949 42.156 339.121 42.156 338.086 42.156 337.047 42.434 336.219 42.984 335.602 43.539 334.988 44.277 334.68 45.199 334.68ZM45.199 334.68"/>
<path d="M49.5 339.414V336.438H50.309V339.387C50.309 339.852 50.402 340.199 50.582 340.434 50.766 340.668 51.035 340.781 51.398 340.781 51.836 340.781 52.18 340.645 52.434 340.363 52.688 340.086 52.816 339.707 52.816 339.227V336.438H53.625V341.359H52.816V340.602C52.617 340.898 52.391 341.121 52.133 341.27 51.871 341.414 51.57 341.484 51.23 341.484 50.664 341.484 50.234 341.309 49.941 340.957 49.648 340.605 49.5 340.094 49.5 339.414ZM49.5 339.414"/>
<path d="M58.141 337.191C58.051 337.137 57.949 337.102 57.844 337.074 57.738 337.051 57.621 337.039 57.492 337.039 57.035 337.039 56.684 337.188 56.438 337.484 56.191 337.781 56.07 338.207 56.07 338.766V341.359H55.258V336.438H56.07V337.199C56.242 336.902 56.461 336.68 56.734 336.535 57.008 336.391 57.34 336.316 57.73 336.316 57.785 336.316 57.844 336.32 57.914 336.328 57.98 336.336 58.055 336.348 58.137 336.363ZM58.141 337.191"/>
<path d="M62.125 336.582V337.348C61.898 337.23 61.66 337.141 61.414 337.082 61.168 337.023 60.914 336.996 60.648 336.996 60.25 336.996 59.949 337.055 59.746 337.18 59.547 337.301 59.445 337.484 59.445 337.734 59.445 337.922 59.52 338.066 59.66 338.176 59.805 338.281 60.094 338.383 60.527 338.48L60.805 338.543C61.379 338.664 61.785 338.836 62.027 339.062 62.27 339.285 62.391 339.598 62.391 340 62.391 340.457 62.211 340.82 61.848 341.086 61.484 341.352 60.988 341.484 60.355 341.484 60.094 341.484 59.816 341.461 59.531 341.41 59.246 341.355 58.945 341.281 58.629 341.18V340.344C58.93 340.5 59.223 340.613 59.512 340.691 59.801 340.77 60.09 340.809 60.375 340.809 60.754 340.809 61.047 340.742 61.25 340.613 61.457 340.48 61.559 340.297 61.559 340.062 61.559 339.844 61.484 339.672 61.336 339.555 61.191 339.438 60.867 339.328 60.363 339.219L60.082 339.152C59.582 339.047 59.223 338.883 58.996 338.668 58.777 338.449 58.664 338.148 58.664 337.77 58.664 337.305 58.828 336.949 59.156 336.695 59.484 336.445 59.949 336.316 60.555 336.316 60.852 336.316 61.133 336.34 61.398 336.383 61.66 336.426 61.906 336.492 62.125 336.582ZM62.125 336.582"/>
<path d="M172.695 8.766V12.602H174.43C175.074 12.602 175.57 12.434 175.922 12.102 176.27 11.77 176.445 11.297 176.445 10.68 176.445 10.07 176.27 9.598 175.922 9.266 175.57 8.934 175.074 8.766 174.43 8.766ZM171.312 7.633H174.43C175.574 7.633 176.441 7.891 177.023 8.406 177.609 8.926 177.902 9.684 177.902 10.68 177.902 11.688 177.609 12.449 177.023 12.965 176.441 13.48 175.574 13.734 174.43 13.734H172.695V17.836H171.312ZM171.312 7.633"/>
<path d="M185.742 13.695V14.309H179.957C180.016 15.176 180.277 15.836 180.742 16.289 181.207 16.742 181.859 16.969 182.691 16.969 183.176 16.969 183.645 16.91 184.098 16.793 184.551 16.676 185 16.496 185.449 16.258V17.449C184.996 17.641 184.535 17.785 184.059 17.887 183.586 17.988 183.105 18.035 182.617 18.035 181.398 18.035 180.43 17.684 179.715 16.973 179.004 16.262 178.645 15.297 178.645 14.086 178.645 12.832 178.984 11.836 179.66 11.102 180.34 10.367 181.25 9.996 182.398 9.996 183.43 9.996 184.246 10.328 184.844 10.992 185.441 11.656 185.742 12.555 185.742 13.695ZM184.484 13.324C184.477 12.637 184.285 12.09 183.906 11.68 183.531 11.27 183.031 11.062 182.414 11.062 181.711 11.062 181.152 11.262 180.73 11.656 180.309 12.055 180.066 12.613 180 13.332ZM184.484 13.324"/>
<path d="M192.242 11.355C192.102 11.273 191.949 11.215 191.781 11.176 191.613 11.137 191.434 11.117 191.23 11.117 190.52 11.117 189.973 11.348 189.594 11.812 189.215 12.273 189.023 12.938 189.023 13.805V17.836H187.758V10.18H189.023V11.371C189.289 10.906 189.633 10.562 190.055 10.336 190.48 10.109 190.996 9.996 191.602 9.996 191.688 9.996 191.785 10.004 191.887 10.016 191.992 10.027 192.109 10.043 192.234 10.066ZM192.242 11.355"/>
<path d="M197.438 7.199V8.246H196.234C195.785 8.246 195.473 8.34 195.297 8.52 195.121 8.703 195.031 9.031 195.031 9.504V10.18H197.105V11.16H195.031V17.836H193.77V11.16H192.566V10.18H193.77V9.648C193.77 8.797 193.965 8.176 194.363 7.785 194.758 7.395 195.387 7.199 196.25 7.199ZM197.438 7.199"/>
<path d="M201.457 11.062C200.785 11.062 200.25 11.328 199.859 11.852 199.465 12.379 199.27 13.102 199.27 14.016 199.27 14.934 199.465 15.652 199.855 16.18 200.246 16.707 200.781 16.969 201.457 16.969 202.129 16.969 202.66 16.707 203.051 16.176 203.441 15.648 203.637 14.926 203.637 14.016 203.637 13.109 203.441 12.391 203.051 11.859 202.66 11.328 202.129 11.062 201.457 11.062ZM201.457 9.996C202.551 9.996 203.41 10.355 204.035 11.066 204.66 11.777 204.973 12.758 204.973 14.016 204.973 15.27 204.66 16.254 204.035 16.969 203.41 17.68 202.551 18.035 201.457 18.035 200.359 18.035 199.5 17.68 198.875 16.969 198.254 16.254 197.945 15.27 197.945 14.016 197.945 12.758 198.254 11.777 198.875 11.066 199.5 10.355 200.359 9.996 201.457 9.996ZM201.457 9.996"/>
<path d="M211.492 11.355C211.352 11.273 211.199 11.215 211.031 11.176 210.863 11.137 210.684 11.117 210.48 11.117 209.77 11.117 209.223 11.348 208.844 11.812 208.465 12.273 208.273 12.938 208.273 13.805V17.836H207.008V10.18H208.273V11.371C208.539 10.906 208.883 10.562 209.305 10.336 209.73 10.109 210.246 9.996 210.852 9.996 210.938 9.996 211.035 10.004 211.137 10.016 211.242 10.027 211.359 10.043 211.484 10.066ZM211.492 11.355"/>
<path d="M218.527 11.652C218.844 11.086 219.219 10.668 219.656 10.398 220.094 10.133 220.609 9.996 221.203 9.996 222 9.996 222.613 10.277 223.047 10.836 223.48 11.395 223.699 12.188 223.699 13.215V17.836H222.434V13.258C222.434 12.523 222.301 11.98 222.043 11.625 221.781 11.27 221.387 11.09 220.855 11.09 220.203 11.09 219.688 11.309 219.309 11.742 218.93 12.172 218.742 12.762 218.742 13.512V17.836H217.477V13.258C217.477 12.52 217.348 11.973 217.086 11.621 216.828 11.27 216.426 11.09 215.883 11.09 215.242 11.09 214.73 11.309 214.352 11.742 213.973 12.18 213.785 12.766 213.785 13.512V17.836H212.52V10.18H213.785V11.371C214.07 10.902 214.414 10.555 214.816 10.332 215.219 10.109 215.695 9.996 216.246 9.996 216.801 9.996 217.273 10.141 217.664 10.422 218.055 10.703 218.34 11.113 218.527 11.652ZM218.527 11.652"/>
<path d="M229.684 13.988C228.668 13.988 227.965 14.105 227.574 14.336 227.18 14.57 226.984 14.965 226.984 15.527 226.984 15.973 227.133 16.328 227.426 16.59 227.719 16.852 228.121 16.984 228.625 16.984 229.324 16.984 229.883 16.734 230.305 16.242 230.727 15.746 230.938 15.09 230.938 14.27V13.988ZM232.195 13.469V17.836H230.938V16.676C230.648 17.141 230.293 17.484 229.863 17.703 229.434 17.926 228.91 18.035 228.289 18.035 227.508 18.035 226.883 17.816 226.418 17.375 225.957 16.938 225.727 16.348 225.727 15.609 225.727 14.75 226.016 14.098 226.59 13.66 227.168 13.223 228.027 13.004 229.172 13.004H230.938V12.883C230.938 12.301 230.746 11.855 230.367 11.539 229.984 11.223 229.449 11.062 228.762 11.062 228.324 11.062 227.898 11.117 227.484 11.219 227.07 11.324 226.672 11.484 226.289 11.691V10.531C226.746 10.352 227.195 10.219 227.629 10.133 228.059 10.043 228.48 9.996 228.891 9.996 230 9.996 230.828 10.285 231.375 10.859 231.922 11.434 232.195 12.301 232.195 13.469ZM232.195 13.469"/>
<path d="M241.148 13.215V17.836H239.891V13.258C239.891 12.531 239.75 11.992 239.469 11.633 239.184 11.273 238.762 11.09 238.195 11.09 237.516 11.09 236.98 11.309 236.59 11.742 236.195 12.172 236 12.762 236 13.512V17.836H234.734V10.18H236V11.371C236.301 10.91 236.656 10.566 237.062 10.34 237.473 10.113 237.941 9.996 238.477 9.996 239.355 9.996 240.02 10.27 240.473 10.812 240.926 11.359 241.148 12.16 241.148 13.215ZM241.148 13.215"/>
<path d="M249.168 10.477V11.652C248.812 11.453 248.457 11.309 248.098 11.211 247.742 11.113 247.379 11.062 247.016 11.062 246.199 11.062 245.562 11.32 245.113 11.84 244.66 12.355 244.438 13.082 244.438 14.016 244.438 14.949 244.66 15.676 245.113 16.195 245.562 16.711 246.199 16.969 247.016 16.969 247.379 16.969 247.742 16.922 248.098 16.824 248.457 16.727 248.812 16.578 249.168 16.383V17.543C248.816 17.707 248.453 17.832 248.074 17.914 247.703 17.996 247.301 18.035 246.879 18.035 245.723 18.035 244.809 17.676 244.129 16.949 243.449 16.227 243.109 15.246 243.109 14.016 243.109 12.77 243.453 11.785 244.137 11.07 244.824 10.355 245.766 9.996 246.961 9.996 247.348 9.996 247.723 10.039 248.094 10.117 248.461 10.195 248.82 10.316 249.168 10.477ZM249.168 10.477"/>
<path d="M257.902 13.695V14.309H252.121C252.176 15.176 252.438 15.836 252.902 16.289 253.371 16.742 254.02 16.969 254.855 16.969 255.336 16.969 255.805 16.91 256.258 16.793 256.711 16.676 257.164 16.496 257.609 16.258V17.449C257.16 17.641 256.695 17.785 256.223 17.887 255.746 17.988 255.266 18.035 254.781 18.035 253.559 18.035 252.59 17.684 251.879 16.973 251.164 16.262 250.809 15.297 250.809 14.086 250.809 12.832 251.145 11.836 251.824 11.102 252.5 10.367 253.414 9.996 254.562 9.996 255.59 9.996 256.406 10.328 257.004 10.992 257.605 11.656 257.902 12.555 257.902 13.695ZM256.645 13.324C256.637 12.637 256.445 12.09 256.07 11.68 255.691 11.27 255.195 11.062 254.574 11.062 253.875 11.062 253.312 11.262 252.891 11.656 252.469 12.055 252.227 12.613 252.16 13.332ZM256.645 13.324"/>
<path d="M267.898 13.988C266.883 13.988 266.176 14.105 265.785 14.336 265.395 14.57 265.195 14.965 265.195 15.527 265.195 15.973 265.344 16.328 265.641 16.59 265.934 16.852 266.332 16.984 266.836 16.984 267.535 16.984 268.098 16.734 268.516 16.242 268.938 15.746 269.148 15.09 269.148 14.27V13.988ZM270.406 13.469V17.836H269.148V16.676C268.863 17.141 268.504 17.484 268.074 17.703 267.648 17.926 267.121 18.035 266.504 18.035 265.719 18.035 265.098 17.816 264.633 17.375 264.172 16.938 263.938 16.348 263.938 15.609 263.938 14.75 264.227 14.098 264.805 13.66 265.379 13.223 266.242 13.004 267.383 13.004H269.148V12.883C269.148 12.301 268.961 11.855 268.578 11.539 268.199 11.223 267.664 11.062 266.977 11.062 266.539 11.062 266.109 11.117 265.695 11.219 265.281 11.324 264.883 11.484 264.5 11.691V10.531C264.961 10.352 265.406 10.219 265.84 10.133 266.273 10.043 266.695 9.996 267.105 9.996 268.211 9.996 269.039 10.285 269.586 10.859 270.133 11.434 270.406 12.301 270.406 13.469ZM270.406 13.469"/>
<path d="M279.363 13.215V17.836H278.105V13.258C278.105 12.531 277.965 11.992 277.68 11.633 277.398 11.273 276.973 11.09 276.41 11.09 275.73 11.09 275.195 11.309 274.801 11.742 274.41 12.172 274.215 12.762 274.215 13.512V17.836H272.949V10.18H274.215V11.371C274.516 10.91 274.871 10.566 275.277 10.34 275.684 10.113 276.156 9.996 276.691 9.996 277.57 9.996 278.234 10.27 278.684 10.812 279.137 11.359 279.363 12.16 279.363 13.215ZM279.363 13.215"/>
<path d="M286.906 11.344V7.199H288.164V17.836H286.906V16.688C286.645 17.145 286.309 17.484 285.906 17.703 285.504 17.926 285.02 18.035 284.453 18.035 283.527 18.035 282.777 17.668 282.195 16.93 281.613 16.191 281.324 15.219 281.324 14.016 281.324 12.812 281.613 11.844 282.195 11.105 282.777 10.367 283.527 9.996 284.453 9.996 285.02 9.996 285.504 10.109 285.906 10.332 286.309 10.551 286.645 10.887 286.906 11.344ZM282.621 14.016C282.621 14.941 282.812 15.668 283.195 16.191 283.574 16.719 284.098 16.984 284.762 16.984 285.426 16.984 285.949 16.719 286.332 16.191 286.715 15.668 286.906 14.941 286.906 14.016 286.906 13.09 286.715 12.367 286.332 11.84 285.949 11.312 285.426 11.051 284.762 11.051 284.098 11.051 283.574 11.312 283.195 11.84 282.812 12.367 282.621 13.09 282.621 14.016ZM282.621 14.016"/>
<path d="M295.262 7.633H301.715V8.793H296.641V11.816H301.504V12.977H296.641V16.676H301.836V17.836H295.262ZM295.262 7.633"/>
<path d="M307.93 7.199V8.246H306.727C306.273 8.246 305.961 8.34 305.785 8.52 305.609 8.703 305.523 9.031 305.523 9.504V10.18H307.594V11.16H305.523V17.836H304.258V11.16H303.055V10.18H304.258V9.648C304.258 8.797 304.457 8.176 304.852 7.785 305.25 7.395 305.879 7.199 306.738 7.199ZM307.93 7.199"/>
<path d="M312.859 7.199V8.246H311.656C311.203 8.246 310.891 8.34 310.715 8.52 310.539 8.703 310.453 9.031 310.453 9.504V10.18H312.523V11.16H310.453V17.836H309.188V11.16H307.984V10.18H309.188V9.648C309.188 8.797 309.387 8.176 309.781 7.785 310.18 7.395 310.809 7.199 311.668 7.199ZM312.859 7.199"/>
<path d="M313.91 10.18H315.168V17.836H313.91ZM313.91 7.199H315.168V8.793H313.91ZM313.91 7.199"/>
<path d="M323.309 10.477V11.652C322.953 11.453 322.598 11.309 322.242 11.211 321.883 11.113 321.523 11.062 321.156 11.062 320.34 11.062 319.707 11.32 319.254 11.84 318.805 12.355 318.578 13.082 318.578 14.016 318.578 14.949 318.805 15.676 319.254 16.195 319.707 16.711 320.34 16.969 321.156 16.969 321.523 16.969 321.883 16.922 322.242 16.824 322.598 16.727 322.953 16.578 323.309 16.383V17.543C322.957 17.707 322.594 17.832 322.219 17.914 321.844 17.996 321.445 18.035 321.02 18.035 319.867 18.035 318.949 17.676 318.27 16.949 317.594 16.227 317.254 15.246 317.254 14.016 317.254 12.77 317.598 11.785 318.281 11.07 318.969 10.355 319.91 9.996 321.102 9.996 321.488 9.996 321.867 10.039 322.234 10.117 322.605 10.195 322.965 10.316 323.309 10.477ZM323.309 10.477"/>
<path d="M325.496 10.18H326.754V17.836H325.496ZM325.496 7.199H326.754V8.793H325.496ZM325.496 7.199"/>
<path d="M335.938 13.695V14.309H330.152C330.207 15.176 330.469 15.836 330.938 16.289 331.402 16.742 332.051 16.969 332.887 16.969 333.371 16.969 333.836 16.91 334.293 16.793 334.746 16.676 335.195 16.496 335.645 16.258V17.449C335.191 17.641 334.727 17.785 334.254 17.887 333.781 17.988 333.301 18.035 332.812 18.035 331.59 18.035 330.621 17.684 329.91 16.973 329.195 16.262 328.84 15.297 328.84 14.086 328.84 12.832 329.18 11.836 329.855 11.102 330.531 10.367 331.445 9.996 332.594 9.996 333.625 9.996 334.438 10.328 335.039 10.992 335.637 11.656 335.938 12.555 335.938 13.695ZM334.68 13.324C334.668 12.637 334.477 12.09 334.102 11.68 333.727 11.27 333.227 11.062 332.605 11.062 331.906 11.062 331.344 11.262 330.922 11.656 330.5 12.055 330.258 12.613 330.195 13.332ZM334.68 13.324"/>
<path d="M344.367 13.215V17.836H343.109V13.258C343.109 12.531 342.965 11.992 342.684 11.633 342.402 11.273 341.977 11.09 341.414 11.09 340.734 11.09 340.195 11.309 339.805 11.742 339.414 12.172 339.215 12.762 339.215 13.512V17.836H337.953V10.18H339.215V11.371C339.52 10.91 339.871 10.566 340.281 10.34 340.688 10.113 341.16 9.996 341.691 9.996 342.57 9.996 343.238 10.27 343.688 10.812 344.141 11.359 344.367 12.16 344.367 13.215ZM344.367 13.215"/>
<path d="M352.383 10.477V11.652C352.027 11.453 351.672 11.309 351.312 11.211 350.957 11.113 350.594 11.062 350.23 11.062 349.414 11.062 348.781 11.32 348.328 11.84 347.879 12.355 347.652 13.082 347.652 14.016 347.652 14.949 347.879 15.676 348.328 16.195 348.781 16.711 349.414 16.969 350.23 16.969 350.594 16.969 350.957 16.922 351.312 16.824 351.672 16.727 352.027 16.578 352.383 16.383V17.543C352.031 17.707 351.668 17.832 351.293 17.914 350.918 17.996 350.516 18.035 350.094 18.035 348.941 18.035 348.023 17.676 347.344 16.949 346.664 16.227 346.328 15.246 346.328 14.016 346.328 12.77 346.668 11.785 347.355 11.07 348.043 10.355 348.98 9.996 350.176 9.996 350.562 9.996 350.941 10.039 351.309 10.117 351.68 10.195 352.035 10.316 352.383 10.477ZM352.383 10.477"/>
<path d="M357.754 18.547C357.402 19.461 357.055 20.055 356.715 20.332 356.379 20.609 355.93 20.75 355.363 20.75H354.359V19.695H355.098C355.441 19.695 355.711 19.613 355.902 19.449 356.094 19.285 356.309 18.898 356.539 18.289L356.766 17.715 353.668 10.18H355L357.395 16.168 359.789 10.18H361.121ZM357.754 18.547"/>
</g>
</svg>
